<svg xmlns="http://www.w3.org/2000/svg" xmlns:xlink="http://www.w3.org/1999/xlink" width="500" zoomAndPan="magnify" viewBox="0 0 375 374.999991" height="500" preserveAspectRatio="xMidYMid meet" version="1.0"><defs><g/><clipPath id="5cd95068a1"><path d="M 60.742188 37.5 L 314.4375 37.5 L 314.4375 229.570312 L 60.742188 229.570312 Z M 60.742188 37.5 " clip-rule="nonzero"/></clipPath></defs><rect x="-37.5" width="450" fill="#ffffff" y="-37.499999" height="449.999989" fill-opacity="1"/><rect x="-37.5" width="450" fill="#128f8b" y="-37.499999" height="449.999989" fill-opacity="1"/><g clip-path="url(#5cd95068a1)"><path fill="#ffffff" d="M 73.03125 191.609375 L 73.03125 96.765625 L 85.695312 96.765625 L 85.695312 84.476562 L 72.863281 84.476562 C 66.199219 84.480469 60.742188 89.933594 60.742188 96.601562 L 60.742188 191.777344 C 60.742188 198.441406 66.199219 203.898438 72.863281 203.898438 L 154.1875 203.898438 C 142.820312 199.0625 130.886719 195.601562 118.691406 193.609375 C 115.636719 193.113281 112.566406 192.707031 109.484375 192.390625 C 106.992188 192.132812 104.492188 191.9375 101.988281 191.808594 C 100.058594 191.703125 98.128906 191.640625 96.203125 191.609375 L 90.640625 191.609375 L 85.695312 191.644531 L 85.695312 191.609375 Z M 221.242188 168.070312 C 206.707031 175.054688 192.910156 183.5 180.070312 193.292969 C 192.1875 178.710938 206.011719 165.667969 221.242188 154.433594 L 221.242188 57.167969 C 205.566406 61.691406 190.8125 69.09375 177.753906 79.039062 C 190.023438 66.3125 204.863281 56.402344 221.242188 49.941406 C 224.398438 48.699219 227.605469 47.582031 230.867188 46.601562 L 230.867188 163.703125 C 227.625 165.085938 224.417969 166.542969 221.242188 168.070312 Z M 268.039062 191.609375 L 268.039062 109.511719 C 268.363281 109.535156 268.6875 109.546875 269.015625 109.546875 L 280.324219 109.546875 L 280.324219 191.773438 C 280.324219 198.441406 274.871094 203.894531 268.203125 203.894531 L 186.882812 203.894531 C 198.25 199.058594 210.179688 195.597656 222.378906 193.605469 C 225.433594 193.109375 228.503906 192.703125 231.582031 192.386719 C 234.078125 192.132812 236.578125 191.9375 239.082031 191.804688 C 241.011719 191.699219 242.941406 191.636719 244.867188 191.605469 L 250.429688 191.605469 L 255.375 191.640625 L 255.375 191.605469 L 268.039062 191.605469 Z M 238.710938 174.753906 L 238.710938 67.277344 L 248.335938 67.277344 L 248.335938 184.558594 C 245.121094 184.535156 241.910156 184.609375 238.710938 184.78125 C 236.089844 184.917969 233.472656 185.117188 230.867188 185.382812 C 227.644531 185.714844 224.4375 186.136719 221.242188 186.664062 C 206.675781 189.042969 192.457031 193.421875 179 199.707031 C 191.542969 189.746094 205.921875 182.457031 221.242188 178.210938 C 224.414062 177.332031 227.621094 176.582031 230.867188 175.96875 C 233.460938 175.480469 236.078125 175.074219 238.710938 174.753906 Z M 139.640625 217.429688 L 161.550781 217.429688 L 161.550781 214.183594 C 161.550781 212.542969 163.070312 211.203125 164.929688 211.203125 L 176.144531 211.203125 C 178 211.203125 179.519531 212.542969 179.519531 214.183594 L 179.519531 217.429688 L 201.425781 217.429688 C 204.328125 217.429688 206.699219 219.523438 206.699219 222.082031 L 206.699219 224.773438 C 206.699219 227.332031 204.328125 229.421875 201.425781 229.421875 L 139.640625 229.421875 C 136.742188 229.421875 134.371094 227.332031 134.371094 224.773438 L 134.371094 222.082031 C 134.371094 219.523438 136.742188 217.429688 139.640625 217.429688 Z M 102.359375 174.753906 L 102.359375 67.277344 L 92.734375 67.277344 L 92.734375 184.558594 C 95.949219 184.535156 99.160156 184.609375 102.359375 184.78125 C 104.980469 184.917969 107.597656 185.117188 110.203125 185.382812 C 113.425781 185.714844 116.632812 186.136719 119.828125 186.664062 C 134.394531 189.042969 148.613281 193.421875 162.070312 199.707031 C 149.527344 189.746094 135.148438 182.457031 119.828125 178.210938 C 116.65625 177.332031 113.445312 176.582031 110.203125 175.96875 C 107.605469 175.480469 104.992188 175.074219 102.359375 174.753906 Z M 283.820312 37.539062 L 292.414062 37.539062 C 293.085938 37.539062 293.632812 38.085938 293.632812 38.757812 L 293.632812 47.351562 C 293.632812 48.023438 293.085938 48.570312 292.414062 48.570312 L 283.820312 48.570312 C 283.152344 48.570312 282.605469 48.023438 282.605469 47.351562 L 282.605469 38.757812 C 282.605469 38.085938 283.152344 37.539062 283.820312 37.539062 Z M 269.015625 69.1875 L 290.261719 69.1875 C 290.59375 69.1875 290.886719 69.066406 291.121094 68.832031 L 295.515625 64.441406 C 295.75 64.207031 295.871094 63.917969 295.871094 63.578125 L 295.871094 52.023438 C 295.871094 51.355469 296.414062 50.808594 297.089844 50.808594 L 313.035156 50.808594 C 313.707031 50.808594 314.253906 51.355469 314.253906 52.023438 L 314.253906 67.972656 C 314.253906 68.640625 313.707031 69.1875 313.035156 69.1875 L 301.480469 69.1875 C 301.144531 69.1875 300.855469 69.308594 300.621094 69.546875 L 296.226562 73.9375 C 295.992188 74.171875 295.871094 74.460938 295.871094 74.796875 L 295.871094 96.046875 C 295.871094 96.714844 295.324219 97.265625 294.652344 97.265625 L 269.015625 97.265625 C 268.34375 97.265625 267.796875 96.714844 267.796875 96.046875 L 267.796875 70.40625 C 267.800781 69.734375 268.34375 69.1875 269.015625 69.1875 Z M 119.828125 168.070312 C 134.363281 175.054688 148.160156 183.5 161 193.292969 C 148.882812 178.710938 135.054688 165.667969 119.828125 154.433594 L 119.828125 57.167969 C 135.5 61.691406 150.257812 69.09375 163.316406 79.039062 C 151.039062 66.3125 136.203125 56.402344 119.824219 49.941406 C 116.667969 48.699219 113.457031 47.582031 110.199219 46.601562 L 110.199219 163.703125 C 113.445312 165.085938 116.652344 166.542969 119.828125 168.070312 Z M 119.828125 168.070312 " fill-opacity="1" fill-rule="evenodd"/></g><g fill="#d6d6d6" fill-opacity="1"><g transform="translate(58.399125, 301.763013)"><g><path d="M 2.59375 -25.875 L 14.828125 -25.875 C 17.734375 -25.875 20.039062 -25.285156 21.75 -24.109375 C 23.46875 -22.941406 24.328125 -21.375 24.328125 -19.40625 C 24.328125 -18.050781 23.929688 -16.863281 23.140625 -15.84375 C 22.347656 -14.820312 21.265625 -14.113281 19.890625 -13.71875 C 21.515625 -13.394531 22.804688 -12.640625 23.765625 -11.453125 C 24.734375 -10.273438 25.21875 -8.847656 25.21875 -7.171875 C 25.21875 -4.972656 24.320312 -3.226562 22.53125 -1.9375 C 20.75 -0.644531 18.328125 0 15.265625 0 L 2.59375 0 Z M 9.125 -20.84375 L 9.125 -15.53125 L 14.453125 -15.53125 C 15.410156 -15.53125 16.171875 -15.769531 16.734375 -16.25 C 17.304688 -16.726562 17.59375 -17.382812 17.59375 -18.21875 C 17.59375 -19.039062 17.304688 -19.679688 16.734375 -20.140625 C 16.171875 -20.609375 15.410156 -20.84375 14.453125 -20.84375 Z M 9.125 -10.796875 L 9.125 -5.0625 L 14.453125 -5.0625 C 15.679688 -5.0625 16.644531 -5.320312 17.34375 -5.84375 C 18.050781 -6.363281 18.40625 -7.078125 18.40625 -7.984375 C 18.40625 -8.847656 18.050781 -9.53125 17.34375 -10.03125 C 16.644531 -10.539062 15.679688 -10.796875 14.453125 -10.796875 Z M 9.125 -10.796875 "/></g></g></g><g fill="#d6d6d6" fill-opacity="1"><g transform="translate(84.836966, 301.763013)"><g><path d="M 14.859375 -26.09375 C 18.878906 -26.09375 22.21875 -24.84375 24.875 -22.34375 C 27.539062 -19.84375 28.875 -16.71875 28.875 -12.96875 C 28.875 -9.195312 27.535156 -6.039062 24.859375 -3.5 C 22.179688 -0.96875 18.847656 0.296875 14.859375 0.296875 C 10.867188 0.296875 7.539062 -0.960938 4.875 -3.484375 C 2.21875 -6.015625 0.890625 -9.175781 0.890625 -12.96875 C 0.890625 -16.738281 2.21875 -19.867188 4.875 -22.359375 C 7.539062 -24.847656 10.867188 -26.09375 14.859375 -26.09375 Z M 14.9375 -20.59375 C 12.914062 -20.59375 11.1875 -19.859375 9.75 -18.390625 C 8.320312 -16.921875 7.609375 -15.101562 7.609375 -12.9375 C 7.609375 -10.769531 8.328125 -8.941406 9.765625 -7.453125 C 11.210938 -5.960938 12.9375 -5.21875 14.9375 -5.21875 C 16.9375 -5.21875 18.628906 -5.960938 20.015625 -7.453125 C 21.410156 -8.941406 22.109375 -10.769531 22.109375 -12.9375 C 22.109375 -15.101562 21.410156 -16.921875 20.015625 -18.390625 C 18.628906 -19.859375 16.9375 -20.59375 14.9375 -20.59375 Z M 14.9375 -20.59375 "/></g></g></g><g fill="#d6d6d6" fill-opacity="1"><g transform="translate(114.602652, 301.763013)"><g><path d="M 14.859375 -26.09375 C 18.878906 -26.09375 22.21875 -24.84375 24.875 -22.34375 C 27.539062 -19.84375 28.875 -16.71875 28.875 -12.96875 C 28.875 -9.195312 27.535156 -6.039062 24.859375 -3.5 C 22.179688 -0.96875 18.847656 0.296875 14.859375 0.296875 C 10.867188 0.296875 7.539062 -0.960938 4.875 -3.484375 C 2.21875 -6.015625 0.890625 -9.175781 0.890625 -12.96875 C 0.890625 -16.738281 2.21875 -19.867188 4.875 -22.359375 C 7.539062 -24.847656 10.867188 -26.09375 14.859375 -26.09375 Z M 14.9375 -20.59375 C 12.914062 -20.59375 11.1875 -19.859375 9.75 -18.390625 C 8.320312 -16.921875 7.609375 -15.101562 7.609375 -12.9375 C 7.609375 -10.769531 8.328125 -8.941406 9.765625 -7.453125 C 11.210938 -5.960938 12.9375 -5.21875 14.9375 -5.21875 C 16.9375 -5.21875 18.628906 -5.960938 20.015625 -7.453125 C 21.410156 -8.941406 22.109375 -10.769531 22.109375 -12.9375 C 22.109375 -15.101562 21.410156 -16.921875 20.015625 -18.390625 C 18.628906 -19.859375 16.9375 -20.59375 14.9375 -20.59375 Z M 14.9375 -20.59375 "/></g></g></g><g fill="#d6d6d6" fill-opacity="1"><g transform="translate(144.368338, 301.763013)"><g><path d="M 19.453125 0 L 12.609375 -10.171875 L 9.171875 -6.359375 L 9.171875 0 L 2.59375 0 L 2.59375 -25.875 L 9.171875 -25.875 L 9.171875 -14.671875 L 19.078125 -25.875 L 26.6875 -25.875 L 17.078125 -15.15625 L 27.3125 0 Z M 19.453125 0 "/></g></g></g><g fill="#d6d6d6" fill-opacity="1"><g transform="translate(171.98942, 301.763013)"><g><path d="M 16.828125 0 L 10.015625 0 L -0.03125 -25.875 L 6.984375 -25.875 L 13.609375 -6.84375 L 20.21875 -25.875 L 26.984375 -25.875 Z M 16.828125 0 "/></g></g></g><g fill="#d6d6d6" fill-opacity="1"><g transform="translate(198.944923, 301.763013)"><g><path d="M 9.171875 0 L 2.59375 0 L 2.59375 -25.875 L 9.171875 -25.875 Z M 9.171875 0 "/></g></g></g><g fill="#d6d6d6" fill-opacity="1"><g transform="translate(210.703287, 301.763013)"><g><path d="M 18.1875 0 L 14.34375 -7.28125 L 9.171875 -7.28125 L 9.171875 0 L 2.59375 0 L 2.59375 -25.875 L 14.15625 -25.875 C 17.582031 -25.875 20.234375 -25.09375 22.109375 -23.53125 C 23.984375 -21.96875 24.921875 -19.742188 24.921875 -16.859375 C 24.921875 -12.867188 23.351562 -10.097656 20.21875 -8.546875 L 25.65625 0 Z M 9.171875 -12.453125 L 14.15625 -12.453125 C 15.582031 -12.453125 16.691406 -12.8125 17.484375 -13.53125 C 18.273438 -14.25 18.671875 -15.285156 18.671875 -16.640625 C 18.671875 -17.960938 18.273438 -18.96875 17.484375 -19.65625 C 16.691406 -20.351562 15.582031 -20.703125 14.15625 -20.703125 L 9.171875 -20.703125 Z M 9.171875 -12.453125 "/></g></g></g><g fill="#d6d6d6" fill-opacity="1"><g transform="translate(237.473918, 301.763013)"><g><path d="M 22.359375 -20.59375 L 14.5625 -20.59375 L 14.5625 0 L 7.984375 0 L 7.984375 -20.59375 L 0.265625 -20.59375 L 0.265625 -25.921875 L 22.359375 -25.921875 Z M 22.359375 -20.59375 "/></g></g></g><g fill="#d6d6d6" fill-opacity="1"><g transform="translate(260.066252, 301.763013)"><g><path d="M 25.875 -25.875 L 25.875 -10.875 C 25.875 -7.445312 24.8125 -4.726562 22.6875 -2.71875 C 20.570312 -0.707031 17.703125 0.296875 14.078125 0.296875 C 10.429688 0.296875 7.53125 -0.707031 5.375 -2.71875 C 3.21875 -4.726562 2.140625 -7.445312 2.140625 -10.875 L 2.140625 -25.875 L 8.71875 -25.875 L 8.71875 -10.875 C 8.71875 -9.144531 9.21875 -7.769531 10.21875 -6.75 C 11.21875 -5.726562 12.519531 -5.21875 14.125 -5.21875 C 15.695312 -5.21875 16.957031 -5.722656 17.90625 -6.734375 C 18.851562 -7.742188 19.328125 -9.125 19.328125 -10.875 L 19.328125 -25.875 Z M 25.875 -25.875 "/></g></g></g><g fill="#d6d6d6" fill-opacity="1"><g transform="translate(288.094066, 301.763013)"><g><path d="M 19.78125 -4.765625 L 8.46875 -4.765625 L 6.578125 0 L -0.1875 0 L 10.984375 -25.875 L 17.75 -25.875 L 28.65625 0 L 21.625 0 Z M 17.859375 -9.765625 L 14.15625 -19.328125 L 10.390625 -9.765625 Z M 17.859375 -9.765625 "/></g></g></g></svg>