<svg xmlns="http://www.w3.org/2000/svg" xmlns:xlink="http://www.w3.org/1999/xlink" width="1500" zoomAndPan="magnify" viewBox="0 0 1125 299.999988" height="400" preserveAspectRatio="xMidYMid meet" version="1.0"><defs><g/><clipPath id="43c10b65ca"><path d="M 302.753906 61.570312 L 484 61.570312 L 484 238.570312 L 302.753906 238.570312 Z M 302.753906 61.570312 " clip-rule="nonzero"/></clipPath><clipPath id="9da279590f"><path d="M 500.949219 91.144531 L 549.539062 91.144531 L 549.539062 99.007812 L 500.949219 99.007812 Z M 500.949219 91.144531 " clip-rule="nonzero"/></clipPath></defs><rect x="-112.5" width="1350" fill="#ffffff" y="-29.999999" height="359.999986" fill-opacity="1"/><rect x="-112.5" width="1350" fill="#128f8b" y="-29.999999" height="359.999986" fill-opacity="1"/><path fill="#f8cf2c" d="M 321.5 121.351562 L 349.1875 121.351562 L 349.1875 144.636719 L 321.5 144.636719 Z M 321.5 121.351562 " fill-opacity="1" fill-rule="nonzero"/><path fill="#f8cf2c" d="M 395.859375 66.605469 L 410.960938 66.605469 L 410.960938 145.265625 L 395.859375 145.265625 Z M 395.859375 66.605469 " fill-opacity="1" fill-rule="nonzero"/><path fill="#f8cf2c" d="M 395.859375 184.28125 L 410.960938 184.28125 L 410.960938 205.046875 L 395.859375 205.046875 Z M 395.859375 184.28125 " fill-opacity="1" fill-rule="nonzero"/><path fill="#f8cf2c" d="M 364.917969 66.605469 L 380.023438 66.605469 L 380.023438 145.265625 L 364.917969 145.265625 Z M 364.917969 66.605469 " fill-opacity="1" fill-rule="nonzero"/><path fill="#f8cf2c" d="M 364.917969 184.28125 L 380.023438 184.28125 L 380.023438 205.046875 L 364.917969 205.046875 Z M 364.917969 184.28125 " fill-opacity="1" fill-rule="nonzero"/><path fill="#f8cf2c" d="M 426.203125 115.6875 L 468.992188 115.6875 L 468.992188 131.421875 L 426.203125 131.421875 Z M 426.203125 115.6875 " fill-opacity="1" fill-rule="nonzero"/><path fill="#f8cf2c" d="M 426.203125 189.3125 L 468.992188 189.3125 L 468.992188 205.046875 L 426.203125 205.046875 Z M 426.203125 189.3125 " fill-opacity="1" fill-rule="nonzero"/><path fill="#f8cf2c" d="M 307.984375 220.167969 L 478.277344 220.167969 L 478.277344 233.382812 L 307.984375 233.382812 Z M 307.984375 220.167969 " fill-opacity="1" fill-rule="nonzero"/><path fill="#fffee6" d="M 321.5 89.261719 L 349.1875 89.261719 L 349.1875 116.316406 L 321.5 116.316406 Z M 321.5 89.261719 " fill-opacity="1" fill-rule="nonzero"/><path fill="#fffee6" d="M 321.5 149.671875 L 349.1875 149.671875 L 349.1875 205.675781 L 321.5 205.675781 Z M 321.5 149.671875 " fill-opacity="1" fill-rule="nonzero"/><path fill="#fffee6" d="M 426.203125 136.453125 L 468.992188 136.453125 L 468.992188 184.28125 L 426.203125 184.28125 Z M 426.203125 136.453125 " fill-opacity="1" fill-rule="nonzero"/><path fill="#fffee6" d="M 395.859375 150.300781 L 410.960938 150.300781 L 410.960938 179.246094 L 395.859375 179.246094 Z M 395.859375 150.300781 " fill-opacity="1" fill-rule="nonzero"/><path fill="#fffee6" d="M 364.917969 150.300781 L 380.023438 150.300781 L 380.023438 179.246094 L 364.917969 179.246094 Z M 364.917969 150.300781 " fill-opacity="1" fill-rule="nonzero"/><g clip-path="url(#43c10b65ca)"><path fill="#252827" d="M 481.421875 215.136719 L 305.46875 215.136719 C 304.078125 215.136719 302.953125 216.261719 302.953125 217.652344 L 302.953125 235.902344 C 302.953125 237.292969 304.078125 238.417969 305.46875 238.417969 L 481.421875 238.417969 C 482.8125 238.417969 483.941406 237.292969 483.941406 235.902344 L 483.941406 217.652344 C 483.941406 216.261719 482.8125 215.136719 481.421875 215.136719 Z M 478.277344 233.382812 L 307.984375 233.382812 L 307.984375 220.167969 L 478.277344 220.167969 Z M 318.925781 210.710938 L 351.933594 210.710938 C 353.324219 210.710938 354.222656 209.3125 354.222656 207.925781 L 354.222656 86.847656 C 354.222656 85.460938 353.324219 84.226562 351.933594 84.226562 L 318.925781 84.226562 C 317.539062 84.226562 316.464844 85.457031 316.464844 86.847656 L 316.464844 207.925781 C 316.464844 209.3125 317.539062 210.710938 318.925781 210.710938 Z M 321.5 89.261719 L 349.1875 89.261719 L 349.1875 116.316406 L 321.5 116.316406 Z M 321.5 121.351562 L 349.1875 121.351562 L 349.1875 144.636719 L 321.5 144.636719 Z M 321.5 149.671875 L 349.1875 149.671875 L 349.1875 205.675781 L 321.5 205.675781 Z M 362.355469 210.082031 L 382.398438 210.082031 C 383.789062 210.082031 385.054688 209.015625 385.054688 207.628906 L 385.054688 64.214844 C 385.054688 62.824219 383.789062 61.570312 382.398438 61.570312 L 362.355469 61.570312 C 360.964844 61.570312 359.886719 62.824219 359.886719 64.214844 L 359.886719 207.628906 C 359.886719 209.015625 360.964844 210.082031 362.355469 210.082031 Z M 364.917969 66.605469 L 380.023438 66.605469 L 380.023438 145.265625 L 364.917969 145.265625 Z M 364.917969 150.300781 L 380.023438 150.300781 L 380.023438 179.246094 L 364.917969 179.246094 Z M 364.917969 184.28125 L 380.023438 184.28125 L 380.023438 205.046875 L 364.917969 205.046875 Z M 393.554688 210.082031 L 413.597656 210.082031 C 414.988281 210.082031 415.996094 209.015625 415.996094 207.628906 L 415.996094 64.214844 C 415.996094 62.824219 414.988281 61.570312 413.597656 61.570312 L 393.554688 61.570312 C 392.164062 61.570312 390.824219 62.824219 390.824219 64.214844 L 390.824219 207.628906 C 390.824219 209.015625 392.164062 210.082031 393.554688 210.082031 Z M 395.859375 66.605469 L 410.960938 66.605469 L 410.960938 145.265625 L 395.859375 145.265625 Z M 395.859375 150.300781 L 410.960938 150.300781 L 410.960938 179.246094 L 395.859375 179.246094 Z M 395.859375 184.28125 L 410.960938 184.28125 L 410.960938 205.046875 L 395.859375 205.046875 Z M 423.753906 210.082031 L 471.792969 210.082031 C 473.183594 210.082031 474.027344 209.066406 474.027344 207.675781 L 474.027344 113.042969 C 474.027344 111.65625 473.183594 110.65625 471.792969 110.65625 L 423.753906 110.65625 C 422.359375 110.65625 421.167969 111.65625 421.167969 113.042969 L 421.167969 207.675781 C 421.167969 209.066406 422.359375 210.082031 423.753906 210.082031 Z M 426.203125 115.6875 L 468.992188 115.6875 L 468.992188 131.421875 L 426.203125 131.421875 Z M 426.203125 136.453125 L 468.992188 136.453125 L 468.992188 184.28125 L 426.203125 184.28125 Z M 426.203125 189.3125 L 468.992188 189.3125 L 468.992188 205.046875 L 426.203125 205.046875 Z M 426.203125 189.3125 " fill-opacity="1" fill-rule="nonzero"/></g><g fill="#252827" fill-opacity="1"><g transform="translate(500.335878, 244.801262)"><g><path d="M 5.4375 -10.171875 L 6.78125 -10.171875 L 6.78125 -2.96875 C 6.78125 -2 6.488281 -1.238281 5.90625 -0.6875 C 5.320312 -0.132812 4.546875 0.140625 3.578125 0.140625 C 2.566406 0.140625 1.78125 -0.113281 1.21875 -0.625 C 0.65625 -1.144531 0.375 -1.875 0.375 -2.8125 L 1.703125 -2.8125 C 1.703125 -2.226562 1.863281 -1.769531 2.1875 -1.4375 C 2.507812 -1.113281 2.972656 -0.953125 3.578125 -0.953125 C 4.128906 -0.953125 4.578125 -1.125 4.921875 -1.46875 C 5.265625 -1.820312 5.4375 -2.316406 5.4375 -2.953125 Z M 5.4375 -10.171875 "/></g></g></g><g fill="#252827" fill-opacity="1"><g transform="translate(509.221875, 244.801262)"><g><path d="M 9 -4.75 C 9 -3.757812 8.832031 -2.890625 8.5 -2.140625 C 8.164062 -1.398438 7.691406 -0.832031 7.078125 -0.4375 C 6.460938 -0.0507812 5.742188 0.140625 4.921875 0.140625 C 4.117188 0.140625 3.40625 -0.0546875 2.78125 -0.453125 C 2.164062 -0.847656 1.6875 -1.40625 1.34375 -2.125 C 1.007812 -2.851562 0.835938 -3.695312 0.828125 -4.65625 L 0.828125 -5.390625 C 0.828125 -6.367188 0.992188 -7.234375 1.328125 -7.984375 C 1.671875 -8.734375 2.148438 -9.304688 2.765625 -9.703125 C 3.390625 -10.097656 4.101562 -10.296875 4.90625 -10.296875 C 5.71875 -10.296875 6.4375 -10.097656 7.0625 -9.703125 C 7.6875 -9.316406 8.164062 -8.75 8.5 -8 C 8.832031 -7.257812 9 -6.390625 9 -5.390625 Z M 7.671875 -5.40625 C 7.671875 -6.613281 7.425781 -7.539062 6.9375 -8.1875 C 6.457031 -8.832031 5.78125 -9.15625 4.90625 -9.15625 C 4.0625 -9.15625 3.394531 -8.832031 2.90625 -8.1875 C 2.414062 -7.539062 2.164062 -6.644531 2.15625 -5.5 L 2.15625 -4.75 C 2.15625 -3.582031 2.398438 -2.664062 2.890625 -2 C 3.378906 -1.332031 4.054688 -1 4.921875 -1 C 5.785156 -1 6.453125 -1.3125 6.921875 -1.9375 C 7.398438 -2.570312 7.648438 -3.476562 7.671875 -4.65625 Z M 7.671875 -5.40625 "/></g></g></g><g fill="#252827" fill-opacity="1"><g transform="translate(520.047863, 244.801262)"><g><path d="M 4.171875 -4.53125 C 3.023438 -4.863281 2.1875 -5.269531 1.65625 -5.75 C 1.132812 -6.226562 0.875 -6.820312 0.875 -7.53125 C 0.875 -8.332031 1.191406 -8.992188 1.828125 -9.515625 C 2.472656 -10.035156 3.304688 -10.296875 4.328125 -10.296875 C 5.023438 -10.296875 5.644531 -10.160156 6.1875 -9.890625 C 6.738281 -9.628906 7.164062 -9.257812 7.46875 -8.78125 C 7.769531 -8.300781 7.921875 -7.78125 7.921875 -7.21875 L 6.578125 -7.21875 C 6.578125 -7.832031 6.378906 -8.316406 5.984375 -8.671875 C 5.597656 -9.023438 5.046875 -9.203125 4.328125 -9.203125 C 3.671875 -9.203125 3.15625 -9.054688 2.78125 -8.765625 C 2.414062 -8.472656 2.234375 -8.066406 2.234375 -7.546875 C 2.234375 -7.140625 2.40625 -6.789062 2.75 -6.5 C 3.101562 -6.21875 3.703125 -5.957031 4.546875 -5.71875 C 5.398438 -5.476562 6.0625 -5.210938 6.53125 -4.921875 C 7.007812 -4.640625 7.363281 -4.304688 7.59375 -3.921875 C 7.820312 -3.546875 7.9375 -3.097656 7.9375 -2.578125 C 7.9375 -1.753906 7.613281 -1.09375 6.96875 -0.59375 C 6.332031 -0.101562 5.476562 0.140625 4.40625 0.140625 C 3.707031 0.140625 3.054688 0.0078125 2.453125 -0.25 C 1.847656 -0.519531 1.378906 -0.890625 1.046875 -1.359375 C 0.722656 -1.828125 0.5625 -2.359375 0.5625 -2.953125 L 1.90625 -2.953125 C 1.90625 -2.335938 2.128906 -1.847656 2.578125 -1.484375 C 3.035156 -1.128906 3.644531 -0.953125 4.40625 -0.953125 C 5.113281 -0.953125 5.65625 -1.097656 6.03125 -1.390625 C 6.40625 -1.679688 6.59375 -2.070312 6.59375 -2.5625 C 6.59375 -3.0625 6.414062 -3.445312 6.0625 -3.71875 C 5.71875 -3.988281 5.085938 -4.257812 4.171875 -4.53125 Z M 4.171875 -4.53125 "/></g></g></g><g fill="#252827" fill-opacity="1"><g transform="translate(529.527022, 244.801262)"><g><path d="M 6.921875 -4.703125 L 2.515625 -4.703125 L 2.515625 -1.09375 L 7.640625 -1.09375 L 7.640625 0 L 1.1875 0 L 1.1875 -10.171875 L 7.5625 -10.171875 L 7.5625 -9.0625 L 2.515625 -9.0625 L 2.515625 -5.796875 L 6.921875 -5.796875 Z M 6.921875 -4.703125 "/></g></g></g><g fill="#252827" fill-opacity="1"><g transform="translate(538.650285, 244.801262)"><g><path d="M 2.515625 -3.984375 L 2.515625 0 L 1.1875 0 L 1.1875 -10.171875 L 4.921875 -10.171875 C 6.035156 -10.171875 6.90625 -9.882812 7.53125 -9.3125 C 8.164062 -8.738281 8.484375 -7.988281 8.484375 -7.0625 C 8.484375 -6.070312 8.175781 -5.3125 7.5625 -4.78125 C 6.945312 -4.25 6.066406 -3.984375 4.921875 -3.984375 Z M 2.515625 -5.078125 L 4.921875 -5.078125 C 5.640625 -5.078125 6.191406 -5.242188 6.578125 -5.578125 C 6.960938 -5.921875 7.15625 -6.410156 7.15625 -7.046875 C 7.15625 -7.648438 6.960938 -8.132812 6.578125 -8.5 C 6.191406 -8.863281 5.664062 -9.050781 5 -9.0625 L 2.515625 -9.0625 Z M 2.515625 -5.078125 "/></g></g></g><g fill="#252827" fill-opacity="1"><g transform="translate(548.666782, 244.801262)"><g><path d="M 8.984375 0 L 7.640625 0 L 7.640625 -4.703125 L 2.515625 -4.703125 L 2.515625 0 L 1.1875 0 L 1.1875 -10.171875 L 2.515625 -10.171875 L 2.515625 -5.796875 L 7.640625 -5.796875 L 7.640625 -10.171875 L 8.984375 -10.171875 Z M 8.984375 0 "/></g></g></g><g fill="#252827" fill-opacity="1"><g transform="translate(559.855648, 244.801262)"><g/></g></g><g fill="#252827" fill-opacity="1"><g transform="translate(564.394112, 244.801262)"><g><path d="M 6.796875 -2.65625 L 2.53125 -2.65625 L 1.578125 0 L 0.203125 0 L 4.078125 -10.171875 L 5.25 -10.171875 L 9.140625 0 L 7.765625 0 Z M 2.9375 -3.75 L 6.390625 -3.75 L 4.65625 -8.515625 Z M 2.9375 -3.75 "/></g></g></g><g fill="#252827" fill-opacity="1"><g transform="translate(574.717658, 244.801262)"><g><path d="M 1.1875 0 L 1.1875 -10.171875 L 4.046875 -10.171875 C 4.929688 -10.171875 5.710938 -9.972656 6.390625 -9.578125 C 7.066406 -9.179688 7.59375 -8.625 7.96875 -7.90625 C 8.34375 -7.1875 8.53125 -6.359375 8.53125 -5.421875 L 8.53125 -4.78125 C 8.53125 -3.820312 8.34375 -2.976562 7.96875 -2.25 C 7.601562 -1.53125 7.078125 -0.976562 6.390625 -0.59375 C 5.703125 -0.207031 4.90625 -0.0078125 4 0 Z M 2.515625 -9.0625 L 2.515625 -1.09375 L 3.9375 -1.09375 C 4.96875 -1.09375 5.769531 -1.410156 6.34375 -2.046875 C 6.914062 -2.691406 7.203125 -3.609375 7.203125 -4.796875 L 7.203125 -5.390625 C 7.203125 -6.546875 6.929688 -7.441406 6.390625 -8.078125 C 5.847656 -8.722656 5.078125 -9.050781 4.078125 -9.0625 Z M 2.515625 -9.0625 "/></g></g></g><g fill="#252827" fill-opacity="1"><g transform="translate(585.090053, 244.801262)"><g><path d="M 1.1875 0 L 1.1875 -10.171875 L 4.046875 -10.171875 C 4.929688 -10.171875 5.710938 -9.972656 6.390625 -9.578125 C 7.066406 -9.179688 7.59375 -8.625 7.96875 -7.90625 C 8.34375 -7.1875 8.53125 -6.359375 8.53125 -5.421875 L 8.53125 -4.78125 C 8.53125 -3.820312 8.34375 -2.976562 7.96875 -2.25 C 7.601562 -1.53125 7.078125 -0.976562 6.390625 -0.59375 C 5.703125 -0.207031 4.90625 -0.0078125 4 0 Z M 2.515625 -9.0625 L 2.515625 -1.09375 L 3.9375 -1.09375 C 4.96875 -1.09375 5.769531 -1.410156 6.34375 -2.046875 C 6.914062 -2.691406 7.203125 -3.609375 7.203125 -4.796875 L 7.203125 -5.390625 C 7.203125 -6.546875 6.929688 -7.441406 6.390625 -8.078125 C 5.847656 -8.722656 5.078125 -9.050781 4.078125 -9.0625 Z M 2.515625 -9.0625 "/></g></g></g><g fill="#252827" fill-opacity="1"><g transform="translate(595.462443, 244.801262)"><g><path d="M 2.625 0 L 1.28125 0 L 1.28125 -10.171875 L 2.625 -10.171875 Z M 2.625 0 "/></g></g></g><g fill="#252827" fill-opacity="1"><g transform="translate(600.34982, 244.801262)"><g><path d="M 4.171875 -4.53125 C 3.023438 -4.863281 2.1875 -5.269531 1.65625 -5.75 C 1.132812 -6.226562 0.875 -6.820312 0.875 -7.53125 C 0.875 -8.332031 1.191406 -8.992188 1.828125 -9.515625 C 2.472656 -10.035156 3.304688 -10.296875 4.328125 -10.296875 C 5.023438 -10.296875 5.644531 -10.160156 6.1875 -9.890625 C 6.738281 -9.628906 7.164062 -9.257812 7.46875 -8.78125 C 7.769531 -8.300781 7.921875 -7.78125 7.921875 -7.21875 L 6.578125 -7.21875 C 6.578125 -7.832031 6.378906 -8.316406 5.984375 -8.671875 C 5.597656 -9.023438 5.046875 -9.203125 4.328125 -9.203125 C 3.671875 -9.203125 3.15625 -9.054688 2.78125 -8.765625 C 2.414062 -8.472656 2.234375 -8.066406 2.234375 -7.546875 C 2.234375 -7.140625 2.40625 -6.789062 2.75 -6.5 C 3.101562 -6.21875 3.703125 -5.957031 4.546875 -5.71875 C 5.398438 -5.476562 6.0625 -5.210938 6.53125 -4.921875 C 7.007812 -4.640625 7.363281 -4.304688 7.59375 -3.921875 C 7.820312 -3.546875 7.9375 -3.097656 7.9375 -2.578125 C 7.9375 -1.753906 7.613281 -1.09375 6.96875 -0.59375 C 6.332031 -0.101562 5.476562 0.140625 4.40625 0.140625 C 3.707031 0.140625 3.054688 0.0078125 2.453125 -0.25 C 1.847656 -0.519531 1.378906 -0.890625 1.046875 -1.359375 C 0.722656 -1.828125 0.5625 -2.359375 0.5625 -2.953125 L 1.90625 -2.953125 C 1.90625 -2.335938 2.128906 -1.847656 2.578125 -1.484375 C 3.035156 -1.128906 3.644531 -0.953125 4.40625 -0.953125 C 5.113281 -0.953125 5.65625 -1.097656 6.03125 -1.390625 C 6.40625 -1.679688 6.59375 -2.070312 6.59375 -2.5625 C 6.59375 -3.0625 6.414062 -3.445312 6.0625 -3.71875 C 5.71875 -3.988281 5.085938 -4.257812 4.171875 -4.53125 Z M 4.171875 -4.53125 "/></g></g></g><g fill="#252827" fill-opacity="1"><g transform="translate(609.828977, 244.801262)"><g><path d="M 9 -4.75 C 9 -3.757812 8.832031 -2.890625 8.5 -2.140625 C 8.164062 -1.398438 7.691406 -0.832031 7.078125 -0.4375 C 6.460938 -0.0507812 5.742188 0.140625 4.921875 0.140625 C 4.117188 0.140625 3.40625 -0.0546875 2.78125 -0.453125 C 2.164062 -0.847656 1.6875 -1.40625 1.34375 -2.125 C 1.007812 -2.851562 0.835938 -3.695312 0.828125 -4.65625 L 0.828125 -5.390625 C 0.828125 -6.367188 0.992188 -7.234375 1.328125 -7.984375 C 1.671875 -8.734375 2.148438 -9.304688 2.765625 -9.703125 C 3.390625 -10.097656 4.101562 -10.296875 4.90625 -10.296875 C 5.71875 -10.296875 6.4375 -10.097656 7.0625 -9.703125 C 7.6875 -9.316406 8.164062 -8.75 8.5 -8 C 8.832031 -7.257812 9 -6.390625 9 -5.390625 Z M 7.671875 -5.40625 C 7.671875 -6.613281 7.425781 -7.539062 6.9375 -8.1875 C 6.457031 -8.832031 5.78125 -9.15625 4.90625 -9.15625 C 4.0625 -9.15625 3.394531 -8.832031 2.90625 -8.1875 C 2.414062 -7.539062 2.164062 -6.644531 2.15625 -5.5 L 2.15625 -4.75 C 2.15625 -3.582031 2.398438 -2.664062 2.890625 -2 C 3.378906 -1.332031 4.054688 -1 4.921875 -1 C 5.785156 -1 6.453125 -1.3125 6.921875 -1.9375 C 7.398438 -2.570312 7.648438 -3.476562 7.671875 -4.65625 Z M 7.671875 -5.40625 "/></g></g></g><g fill="#252827" fill-opacity="1"><g transform="translate(620.654961, 244.801262)"><g><path d="M 8.984375 0 L 7.640625 0 L 2.53125 -7.828125 L 2.53125 0 L 1.1875 0 L 1.1875 -10.171875 L 2.53125 -10.171875 L 7.65625 -2.296875 L 7.65625 -10.171875 L 8.984375 -10.171875 Z M 8.984375 0 "/></g></g></g><g fill="#252827" fill-opacity="1"><g transform="translate(500.335878, 138.964209)"><g><path d="M 13.28125 -4.1875 L 5.9375 -4.1875 L 4.546875 0 L 0.09375 0 L 7.65625 -20.3125 L 11.546875 -20.3125 L 19.140625 0 L 14.6875 0 Z M 7.078125 -7.578125 L 12.15625 -7.578125 L 9.59375 -15.1875 Z M 7.078125 -7.578125 "/></g></g><g transform="translate(519.568309, 138.964209)"><g/></g><g transform="translate(526.686263, 138.964209)"><g><path d="M 5.8125 0 L 1.765625 0 L 1.765625 -21.4375 L 5.8125 -21.4375 Z M 5.8125 0 "/></g></g><g transform="translate(534.26479, 138.964209)"><g><path d="M 8.5 0.28125 C 6.28125 0.28125 4.472656 -0.394531 3.078125 -1.75 C 1.691406 -3.113281 1 -4.925781 1 -7.1875 L 1 -7.578125 C 1 -9.097656 1.289062 -10.453125 1.875 -11.640625 C 2.46875 -12.835938 3.300781 -13.757812 4.375 -14.40625 C 5.445312 -15.050781 6.671875 -15.375 8.046875 -15.375 C 10.117188 -15.375 11.742188 -14.722656 12.921875 -13.421875 C 14.109375 -12.117188 14.703125 -10.273438 14.703125 -7.890625 L 14.703125 -6.234375 L 5.09375 -6.234375 C 5.21875 -5.253906 5.609375 -4.460938 6.265625 -3.859375 C 6.921875 -3.265625 7.753906 -2.96875 8.765625 -2.96875 C 10.316406 -2.96875 11.53125 -3.53125 12.40625 -4.65625 L 14.390625 -2.4375 C 13.785156 -1.582031 12.960938 -0.914062 11.921875 -0.4375 C 10.890625 0.0390625 9.75 0.28125 8.5 0.28125 Z M 8.03125 -12.109375 C 7.238281 -12.109375 6.59375 -11.835938 6.09375 -11.296875 C 5.59375 -10.765625 5.273438 -9.992188 5.140625 -8.984375 L 10.75 -8.984375 L 10.75 -9.3125 C 10.726562 -10.195312 10.484375 -10.882812 10.015625 -11.375 C 9.554688 -11.863281 8.894531 -12.109375 8.03125 -12.109375 Z M 8.03125 -12.109375 "/></g></g><g transform="translate(549.714936, 138.964209)"><g><path d="M 5.8125 0 L 1.765625 0 L 1.765625 -15.09375 L 5.8125 -15.09375 Z M 1.515625 -19 C 1.515625 -19.601562 1.71875 -20.097656 2.125 -20.484375 C 2.53125 -20.878906 3.082031 -21.078125 3.78125 -21.078125 C 4.46875 -21.078125 5.015625 -20.878906 5.421875 -20.484375 C 5.835938 -20.097656 6.046875 -19.601562 6.046875 -19 C 6.046875 -18.382812 5.835938 -17.878906 5.421875 -17.484375 C 5.003906 -17.097656 4.457031 -16.90625 3.78125 -16.90625 C 3.101562 -16.90625 2.554688 -17.097656 2.140625 -17.484375 C 1.722656 -17.878906 1.515625 -18.382812 1.515625 -19 Z M 1.515625 -19 "/></g></g><g transform="translate(557.293463, 138.964209)"><g><path d="M 6.375 -18.8125 L 6.375 -15.09375 L 8.953125 -15.09375 L 8.953125 -12.140625 L 6.375 -12.140625 L 6.375 -4.609375 C 6.375 -4.046875 6.476562 -3.644531 6.6875 -3.40625 C 6.90625 -3.164062 7.316406 -3.046875 7.921875 -3.046875 C 8.367188 -3.046875 8.765625 -3.078125 9.109375 -3.140625 L 9.109375 -0.078125 C 8.316406 0.160156 7.503906 0.28125 6.671875 0.28125 C 3.835938 0.28125 2.394531 -1.144531 2.34375 -4 L 2.34375 -12.140625 L 0.140625 -12.140625 L 0.140625 -15.09375 L 2.34375 -15.09375 L 2.34375 -18.8125 Z M 6.375 -18.8125 "/></g></g><g transform="translate(566.951549, 138.964209)"><g><path d="M 10.59375 -1.53125 C 9.59375 -0.320312 8.210938 0.28125 6.453125 0.28125 C 4.835938 0.28125 3.601562 -0.179688 2.75 -1.109375 C 1.90625 -2.046875 1.472656 -3.410156 1.453125 -5.203125 L 1.453125 -15.09375 L 5.484375 -15.09375 L 5.484375 -5.34375 C 5.484375 -3.769531 6.203125 -2.984375 7.640625 -2.984375 C 9.003906 -2.984375 9.941406 -3.457031 10.453125 -4.40625 L 10.453125 -15.09375 L 14.5 -15.09375 L 14.5 0 L 10.703125 0 Z M 10.59375 -1.53125 "/></g></g><g transform="translate(582.94601, 138.964209)"><g><path d="M 10.03125 -11.3125 C 9.476562 -11.382812 8.992188 -11.421875 8.578125 -11.421875 C 7.054688 -11.421875 6.054688 -10.90625 5.578125 -9.875 L 5.578125 0 L 1.546875 0 L 1.546875 -15.09375 L 5.359375 -15.09375 L 5.46875 -13.296875 C 6.28125 -14.679688 7.398438 -15.375 8.828125 -15.375 C 9.273438 -15.375 9.695312 -15.316406 10.09375 -15.203125 Z M 10.03125 -11.3125 "/></g></g><g transform="translate(593.371718, 138.964209)"><g><path d="M 10.296875 0 C 10.109375 -0.363281 9.972656 -0.816406 9.890625 -1.359375 C 8.910156 -0.265625 7.640625 0.28125 6.078125 0.28125 C 4.597656 0.28125 3.375 -0.144531 2.40625 -1 C 1.4375 -1.851562 0.953125 -2.929688 0.953125 -4.234375 C 0.953125 -5.835938 1.539062 -7.066406 2.71875 -7.921875 C 3.90625 -8.773438 5.625 -9.207031 7.875 -9.21875 L 9.71875 -9.21875 L 9.71875 -10.09375 C 9.71875 -10.789062 9.539062 -11.347656 9.1875 -11.765625 C 8.832031 -12.179688 8.269531 -12.390625 7.5 -12.390625 C 6.8125 -12.390625 6.273438 -12.226562 5.890625 -11.90625 C 5.503906 -11.582031 5.3125 -11.132812 5.3125 -10.5625 L 1.28125 -10.5625 C 1.28125 -11.4375 1.550781 -12.242188 2.09375 -12.984375 C 2.632812 -13.734375 3.394531 -14.316406 4.375 -14.734375 C 5.363281 -15.160156 6.472656 -15.375 7.703125 -15.375 C 9.566406 -15.375 11.039062 -14.90625 12.125 -13.96875 C 13.21875 -13.039062 13.765625 -11.726562 13.765625 -10.03125 L 13.765625 -3.484375 C 13.773438 -2.054688 13.976562 -0.972656 14.375 -0.234375 L 14.375 0 Z M 6.96875 -2.8125 C 7.5625 -2.8125 8.109375 -2.941406 8.609375 -3.203125 C 9.109375 -3.460938 9.476562 -3.816406 9.71875 -4.265625 L 9.71875 -6.859375 L 8.21875 -6.859375 C 6.195312 -6.859375 5.125 -6.160156 5 -4.765625 L 4.984375 -4.53125 C 4.984375 -4.03125 5.160156 -3.617188 5.515625 -3.296875 C 5.867188 -2.972656 6.351562 -2.8125 6.96875 -2.8125 Z M 6.96875 -2.8125 "/></g></g><g transform="translate(608.696253, 138.964209)"><g/></g><g transform="translate(615.814207, 138.964209)"><g><path d="M 8.5 0.28125 C 6.28125 0.28125 4.472656 -0.394531 3.078125 -1.75 C 1.691406 -3.113281 1 -4.925781 1 -7.1875 L 1 -7.578125 C 1 -9.097656 1.289062 -10.453125 1.875 -11.640625 C 2.46875 -12.835938 3.300781 -13.757812 4.375 -14.40625 C 5.445312 -15.050781 6.671875 -15.375 8.046875 -15.375 C 10.117188 -15.375 11.742188 -14.722656 12.921875 -13.421875 C 14.109375 -12.117188 14.703125 -10.273438 14.703125 -7.890625 L 14.703125 -6.234375 L 5.09375 -6.234375 C 5.21875 -5.253906 5.609375 -4.460938 6.265625 -3.859375 C 6.921875 -3.265625 7.753906 -2.96875 8.765625 -2.96875 C 10.316406 -2.96875 11.53125 -3.53125 12.40625 -4.65625 L 14.390625 -2.4375 C 13.785156 -1.582031 12.960938 -0.914062 11.921875 -0.4375 C 10.890625 0.0390625 9.75 0.28125 8.5 0.28125 Z M 8.03125 -12.109375 C 7.238281 -12.109375 6.59375 -11.835938 6.09375 -11.296875 C 5.59375 -10.765625 5.273438 -9.992188 5.140625 -8.984375 L 10.75 -8.984375 L 10.75 -9.3125 C 10.726562 -10.195312 10.484375 -10.882812 10.015625 -11.375 C 9.554688 -11.863281 8.894531 -12.109375 8.03125 -12.109375 Z M 8.390625 -21.4375 L 12.78125 -21.4375 L 8.921875 -17.109375 L 5.640625 -17.109375 Z M 8.390625 -21.4375 "/></g></g><g transform="translate(631.264353, 138.964209)"><g/></g><g transform="translate(638.382307, 138.964209)"><g><path d="M 15.140625 -7.40625 C 15.140625 -5.082031 14.609375 -3.21875 13.546875 -1.8125 C 12.492188 -0.414062 11.070312 0.28125 9.28125 0.28125 C 7.75 0.28125 6.515625 -0.25 5.578125 -1.3125 L 5.578125 5.8125 L 1.546875 5.8125 L 1.546875 -15.09375 L 5.28125 -15.09375 L 5.421875 -13.625 C 6.398438 -14.789062 7.675781 -15.375 9.25 -15.375 C 11.113281 -15.375 12.5625 -14.6875 13.59375 -13.3125 C 14.625 -11.9375 15.140625 -10.039062 15.140625 -7.625 Z M 11.109375 -7.703125 C 11.109375 -9.109375 10.859375 -10.191406 10.359375 -10.953125 C 9.859375 -11.710938 9.132812 -12.09375 8.1875 -12.09375 C 6.925781 -12.09375 6.054688 -11.609375 5.578125 -10.640625 L 5.578125 -4.46875 C 6.078125 -3.46875 6.957031 -2.96875 8.21875 -2.96875 C 10.144531 -2.96875 11.109375 -4.546875 11.109375 -7.703125 Z M 11.109375 -7.703125 "/></g></g><g transform="translate(654.474465, 138.964209)"><g><path d="M 10.296875 0 C 10.109375 -0.363281 9.972656 -0.816406 9.890625 -1.359375 C 8.910156 -0.265625 7.640625 0.28125 6.078125 0.28125 C 4.597656 0.28125 3.375 -0.144531 2.40625 -1 C 1.4375 -1.851562 0.953125 -2.929688 0.953125 -4.234375 C 0.953125 -5.835938 1.539062 -7.066406 2.71875 -7.921875 C 3.90625 -8.773438 5.625 -9.207031 7.875 -9.21875 L 9.71875 -9.21875 L 9.71875 -10.09375 C 9.71875 -10.789062 9.539062 -11.347656 9.1875 -11.765625 C 8.832031 -12.179688 8.269531 -12.390625 7.5 -12.390625 C 6.8125 -12.390625 6.273438 -12.226562 5.890625 -11.90625 C 5.503906 -11.582031 5.3125 -11.132812 5.3125 -10.5625 L 1.28125 -10.5625 C 1.28125 -11.4375 1.550781 -12.242188 2.09375 -12.984375 C 2.632812 -13.734375 3.394531 -14.316406 4.375 -14.734375 C 5.363281 -15.160156 6.472656 -15.375 7.703125 -15.375 C 9.566406 -15.375 11.039062 -14.90625 12.125 -13.96875 C 13.21875 -13.039062 13.765625 -11.726562 13.765625 -10.03125 L 13.765625 -3.484375 C 13.773438 -2.054688 13.976562 -0.972656 14.375 -0.234375 L 14.375 0 Z M 6.96875 -2.8125 C 7.5625 -2.8125 8.109375 -2.941406 8.609375 -3.203125 C 9.109375 -3.460938 9.476562 -3.816406 9.71875 -4.265625 L 9.71875 -6.859375 L 8.21875 -6.859375 C 6.195312 -6.859375 5.125 -6.160156 5 -4.765625 L 4.984375 -4.53125 C 4.984375 -4.03125 5.160156 -3.617188 5.515625 -3.296875 C 5.867188 -2.972656 6.351562 -2.8125 6.96875 -2.8125 Z M 6.96875 -2.8125 "/></g></g><g transform="translate(669.799, 138.964209)"><g><path d="M 10.03125 -11.3125 C 9.476562 -11.382812 8.992188 -11.421875 8.578125 -11.421875 C 7.054688 -11.421875 6.054688 -10.90625 5.578125 -9.875 L 5.578125 0 L 1.546875 0 L 1.546875 -15.09375 L 5.359375 -15.09375 L 5.46875 -13.296875 C 6.28125 -14.679688 7.398438 -15.375 8.828125 -15.375 C 9.273438 -15.375 9.695312 -15.316406 10.09375 -15.203125 Z M 10.03125 -11.3125 "/></g></g><g transform="translate(680.224708, 138.964209)"><g><path d="M 10.296875 0 C 10.109375 -0.363281 9.972656 -0.816406 9.890625 -1.359375 C 8.910156 -0.265625 7.640625 0.28125 6.078125 0.28125 C 4.597656 0.28125 3.375 -0.144531 2.40625 -1 C 1.4375 -1.851562 0.953125 -2.929688 0.953125 -4.234375 C 0.953125 -5.835938 1.539062 -7.066406 2.71875 -7.921875 C 3.90625 -8.773438 5.625 -9.207031 7.875 -9.21875 L 9.71875 -9.21875 L 9.71875 -10.09375 C 9.71875 -10.789062 9.539062 -11.347656 9.1875 -11.765625 C 8.832031 -12.179688 8.269531 -12.390625 7.5 -12.390625 C 6.8125 -12.390625 6.273438 -12.226562 5.890625 -11.90625 C 5.503906 -11.582031 5.3125 -11.132812 5.3125 -10.5625 L 1.28125 -10.5625 C 1.28125 -11.4375 1.550781 -12.242188 2.09375 -12.984375 C 2.632812 -13.734375 3.394531 -14.316406 4.375 -14.734375 C 5.363281 -15.160156 6.472656 -15.375 7.703125 -15.375 C 9.566406 -15.375 11.039062 -14.90625 12.125 -13.96875 C 13.21875 -13.039062 13.765625 -11.726562 13.765625 -10.03125 L 13.765625 -3.484375 C 13.773438 -2.054688 13.976562 -0.972656 14.375 -0.234375 L 14.375 0 Z M 6.96875 -2.8125 C 7.5625 -2.8125 8.109375 -2.941406 8.609375 -3.203125 C 9.109375 -3.460938 9.476562 -3.816406 9.71875 -4.265625 L 9.71875 -6.859375 L 8.21875 -6.859375 C 6.195312 -6.859375 5.125 -6.160156 5 -4.765625 L 4.984375 -4.53125 C 4.984375 -4.03125 5.160156 -3.617188 5.515625 -3.296875 C 5.867188 -2.972656 6.351562 -2.8125 6.96875 -2.8125 Z M 6.96875 -2.8125 "/></g></g><g transform="translate(695.549244, 138.964209)"><g/></g><g transform="translate(702.667197, 138.964209)"><g><path d="M 10.296875 0 C 10.109375 -0.363281 9.972656 -0.816406 9.890625 -1.359375 C 8.910156 -0.265625 7.640625 0.28125 6.078125 0.28125 C 4.597656 0.28125 3.375 -0.144531 2.40625 -1 C 1.4375 -1.851562 0.953125 -2.929688 0.953125 -4.234375 C 0.953125 -5.835938 1.539062 -7.066406 2.71875 -7.921875 C 3.90625 -8.773438 5.625 -9.207031 7.875 -9.21875 L 9.71875 -9.21875 L 9.71875 -10.09375 C 9.71875 -10.789062 9.539062 -11.347656 9.1875 -11.765625 C 8.832031 -12.179688 8.269531 -12.390625 7.5 -12.390625 C 6.8125 -12.390625 6.273438 -12.226562 5.890625 -11.90625 C 5.503906 -11.582031 5.3125 -11.132812 5.3125 -10.5625 L 1.28125 -10.5625 C 1.28125 -11.4375 1.550781 -12.242188 2.09375 -12.984375 C 2.632812 -13.734375 3.394531 -14.316406 4.375 -14.734375 C 5.363281 -15.160156 6.472656 -15.375 7.703125 -15.375 C 9.566406 -15.375 11.039062 -14.90625 12.125 -13.96875 C 13.21875 -13.039062 13.765625 -11.726562 13.765625 -10.03125 L 13.765625 -3.484375 C 13.773438 -2.054688 13.976562 -0.972656 14.375 -0.234375 L 14.375 0 Z M 6.96875 -2.8125 C 7.5625 -2.8125 8.109375 -2.941406 8.609375 -3.203125 C 9.109375 -3.460938 9.476562 -3.816406 9.71875 -4.265625 L 9.71875 -6.859375 L 8.21875 -6.859375 C 6.195312 -6.859375 5.125 -6.160156 5 -4.765625 L 4.984375 -4.53125 C 4.984375 -4.03125 5.160156 -3.617188 5.515625 -3.296875 C 5.867188 -2.972656 6.351562 -2.8125 6.96875 -2.8125 Z M 6.96875 -2.8125 "/></g></g><g transform="translate(717.991732, 138.964209)"><g/></g><g transform="translate(725.109686, 138.964209)"><g><path d="M 5.328125 -15.09375 L 5.453125 -13.40625 C 6.523438 -14.71875 7.972656 -15.375 9.796875 -15.375 C 11.742188 -15.375 13.078125 -14.609375 13.796875 -13.078125 C 14.859375 -14.609375 16.367188 -15.375 18.328125 -15.375 C 19.972656 -15.375 21.191406 -14.894531 21.984375 -13.9375 C 22.785156 -12.988281 23.1875 -11.554688 23.1875 -9.640625 L 23.1875 0 L 19.140625 0 L 19.140625 -9.625 C 19.140625 -10.476562 18.972656 -11.101562 18.640625 -11.5 C 18.304688 -11.894531 17.71875 -12.09375 16.875 -12.09375 C 15.664062 -12.09375 14.828125 -11.519531 14.359375 -10.375 L 14.375 0 L 10.34375 0 L 10.34375 -9.609375 C 10.34375 -10.484375 10.171875 -11.113281 9.828125 -11.5 C 9.484375 -11.894531 8.894531 -12.09375 8.0625 -12.09375 C 6.914062 -12.09375 6.085938 -11.617188 5.578125 -10.671875 L 5.578125 0 L 1.546875 0 L 1.546875 -15.09375 Z M 5.328125 -15.09375 "/></g></g><g transform="translate(749.855043, 138.964209)"><g><path d="M 8.5 0.28125 C 6.28125 0.28125 4.472656 -0.394531 3.078125 -1.75 C 1.691406 -3.113281 1 -4.925781 1 -7.1875 L 1 -7.578125 C 1 -9.097656 1.289062 -10.453125 1.875 -11.640625 C 2.46875 -12.835938 3.300781 -13.757812 4.375 -14.40625 C 5.445312 -15.050781 6.671875 -15.375 8.046875 -15.375 C 10.117188 -15.375 11.742188 -14.722656 12.921875 -13.421875 C 14.109375 -12.117188 14.703125 -10.273438 14.703125 -7.890625 L 14.703125 -6.234375 L 5.09375 -6.234375 C 5.21875 -5.253906 5.609375 -4.460938 6.265625 -3.859375 C 6.921875 -3.265625 7.753906 -2.96875 8.765625 -2.96875 C 10.316406 -2.96875 11.53125 -3.53125 12.40625 -4.65625 L 14.390625 -2.4375 C 13.785156 -1.582031 12.960938 -0.914062 11.921875 -0.4375 C 10.890625 0.0390625 9.75 0.28125 8.5 0.28125 Z M 8.03125 -12.109375 C 7.238281 -12.109375 6.59375 -11.835938 6.09375 -11.296875 C 5.59375 -10.765625 5.273438 -9.992188 5.140625 -8.984375 L 10.75 -8.984375 L 10.75 -9.3125 C 10.726562 -10.195312 10.484375 -10.882812 10.015625 -11.375 C 9.554688 -11.863281 8.894531 -12.109375 8.03125 -12.109375 Z M 8.03125 -12.109375 "/></g></g><g transform="translate(765.305189, 138.964209)"><g><path d="M 5.265625 -15.09375 L 5.390625 -13.359375 C 6.460938 -14.703125 7.90625 -15.375 9.71875 -15.375 C 11.320312 -15.375 12.515625 -14.90625 13.296875 -13.96875 C 14.078125 -13.03125 14.476562 -11.625 14.5 -9.75 L 14.5 0 L 10.46875 0 L 10.46875 -9.65625 C 10.46875 -10.507812 10.28125 -11.128906 9.90625 -11.515625 C 9.53125 -11.898438 8.910156 -12.09375 8.046875 -12.09375 C 6.910156 -12.09375 6.0625 -11.609375 5.5 -10.640625 L 5.5 0 L 1.46875 0 L 1.46875 -15.09375 Z M 5.265625 -15.09375 "/></g></g><g transform="translate(781.313606, 138.964209)"><g><path d="M 6.375 -18.8125 L 6.375 -15.09375 L 8.953125 -15.09375 L 8.953125 -12.140625 L 6.375 -12.140625 L 6.375 -4.609375 C 6.375 -4.046875 6.476562 -3.644531 6.6875 -3.40625 C 6.90625 -3.164062 7.316406 -3.046875 7.921875 -3.046875 C 8.367188 -3.046875 8.765625 -3.078125 9.109375 -3.140625 L 9.109375 -0.078125 C 8.316406 0.160156 7.503906 0.28125 6.671875 0.28125 C 3.835938 0.28125 2.394531 -1.144531 2.34375 -4 L 2.34375 -12.140625 L 0.140625 -12.140625 L 0.140625 -15.09375 L 2.34375 -15.09375 L 2.34375 -18.8125 Z M 6.375 -18.8125 "/></g></g><g transform="translate(790.971692, 138.964209)"><g><path d="M 8.5 0.28125 C 6.28125 0.28125 4.472656 -0.394531 3.078125 -1.75 C 1.691406 -3.113281 1 -4.925781 1 -7.1875 L 1 -7.578125 C 1 -9.097656 1.289062 -10.453125 1.875 -11.640625 C 2.46875 -12.835938 3.300781 -13.757812 4.375 -14.40625 C 5.445312 -15.050781 6.671875 -15.375 8.046875 -15.375 C 10.117188 -15.375 11.742188 -14.722656 12.921875 -13.421875 C 14.109375 -12.117188 14.703125 -10.273438 14.703125 -7.890625 L 14.703125 -6.234375 L 5.09375 -6.234375 C 5.21875 -5.253906 5.609375 -4.460938 6.265625 -3.859375 C 6.921875 -3.265625 7.753906 -2.96875 8.765625 -2.96875 C 10.316406 -2.96875 11.53125 -3.53125 12.40625 -4.65625 L 14.390625 -2.4375 C 13.785156 -1.582031 12.960938 -0.914062 11.921875 -0.4375 C 10.890625 0.0390625 9.75 0.28125 8.5 0.28125 Z M 8.03125 -12.109375 C 7.238281 -12.109375 6.59375 -11.835938 6.09375 -11.296875 C 5.59375 -10.765625 5.273438 -9.992188 5.140625 -8.984375 L 10.75 -8.984375 L 10.75 -9.3125 C 10.726562 -10.195312 10.484375 -10.882812 10.015625 -11.375 C 9.554688 -11.863281 8.894531 -12.109375 8.03125 -12.109375 Z M 8.03125 -12.109375 "/></g></g></g><g fill="#252827" fill-opacity="1"><g transform="translate(500.335878, 173.264371)"><g><path d="M 0.921875 -7.6875 C 0.921875 -9.1875 1.207031 -10.519531 1.78125 -11.6875 C 2.363281 -12.863281 3.195312 -13.769531 4.28125 -14.40625 C 5.363281 -15.050781 6.617188 -15.375 8.046875 -15.375 C 10.085938 -15.375 11.75 -14.75 13.03125 -13.5 C 14.320312 -12.257812 15.046875 -10.566406 15.203125 -8.421875 L 15.21875 -7.390625 C 15.21875 -5.078125 14.570312 -3.21875 13.28125 -1.8125 C 11.988281 -0.414062 10.253906 0.28125 8.078125 0.28125 C 5.898438 0.28125 4.160156 -0.414062 2.859375 -1.8125 C 1.566406 -3.207031 0.921875 -5.101562 0.921875 -7.5 Z M 4.953125 -7.390625 C 4.953125 -5.960938 5.222656 -4.867188 5.765625 -4.109375 C 6.304688 -3.347656 7.078125 -2.96875 8.078125 -2.96875 C 9.054688 -2.96875 9.816406 -3.34375 10.359375 -4.09375 C 10.910156 -4.84375 11.1875 -6.039062 11.1875 -7.6875 C 11.1875 -9.09375 10.910156 -10.179688 10.359375 -10.953125 C 9.816406 -11.722656 9.046875 -12.109375 8.046875 -12.109375 C 7.066406 -12.109375 6.304688 -11.722656 5.765625 -10.953125 C 5.222656 -10.191406 4.953125 -9.003906 4.953125 -7.390625 Z M 4.953125 -7.390625 "/></g></g><g transform="translate(516.497819, 173.264371)"><g/></g><g transform="translate(523.615773, 173.264371)"><g><path d="M 0.921875 -7.6875 C 0.921875 -10.0625 1.445312 -11.9375 2.5 -13.3125 C 3.5625 -14.6875 5.007812 -15.375 6.84375 -15.375 C 8.46875 -15.375 9.757812 -14.753906 10.71875 -13.515625 L 10.984375 -15.09375 L 14.53125 -15.09375 L 14.53125 5.8125 L 10.484375 5.8125 L 10.484375 -1.296875 C 9.546875 -0.242188 8.328125 0.28125 6.828125 0.28125 C 5.023438 0.28125 3.585938 -0.414062 2.515625 -1.8125 C 1.453125 -3.207031 0.921875 -5.164062 0.921875 -7.6875 Z M 4.953125 -7.390625 C 4.953125 -5.953125 5.203125 -4.851562 5.703125 -4.09375 C 6.210938 -3.34375 6.929688 -2.96875 7.859375 -2.96875 C 9.097656 -2.96875 9.972656 -3.460938 10.484375 -4.453125 L 10.484375 -10.6875 C 9.972656 -11.632812 9.109375 -12.109375 7.890625 -12.109375 C 6.953125 -12.109375 6.226562 -11.734375 5.71875 -10.984375 C 5.207031 -10.234375 4.953125 -9.035156 4.953125 -7.390625 Z M 4.953125 -7.390625 "/></g></g><g transform="translate(539.763758, 173.264371)"><g><path d="M 10.59375 -1.53125 C 9.59375 -0.320312 8.210938 0.28125 6.453125 0.28125 C 4.835938 0.28125 3.601562 -0.179688 2.75 -1.109375 C 1.90625 -2.046875 1.472656 -3.410156 1.453125 -5.203125 L 1.453125 -15.09375 L 5.484375 -15.09375 L 5.484375 -5.34375 C 5.484375 -3.769531 6.203125 -2.984375 7.640625 -2.984375 C 9.003906 -2.984375 9.941406 -3.457031 10.453125 -4.40625 L 10.453125 -15.09375 L 14.5 -15.09375 L 14.5 0 L 10.703125 0 Z M 10.59375 -1.53125 "/></g></g><g transform="translate(555.758218, 173.264371)"><g><path d="M 8.5 0.28125 C 6.28125 0.28125 4.472656 -0.394531 3.078125 -1.75 C 1.691406 -3.113281 1 -4.925781 1 -7.1875 L 1 -7.578125 C 1 -9.097656 1.289062 -10.453125 1.875 -11.640625 C 2.46875 -12.835938 3.300781 -13.757812 4.375 -14.40625 C 5.445312 -15.050781 6.671875 -15.375 8.046875 -15.375 C 10.117188 -15.375 11.742188 -14.722656 12.921875 -13.421875 C 14.109375 -12.117188 14.703125 -10.273438 14.703125 -7.890625 L 14.703125 -6.234375 L 5.09375 -6.234375 C 5.21875 -5.253906 5.609375 -4.460938 6.265625 -3.859375 C 6.921875 -3.265625 7.753906 -2.96875 8.765625 -2.96875 C 10.316406 -2.96875 11.53125 -3.53125 12.40625 -4.65625 L 14.390625 -2.4375 C 13.785156 -1.582031 12.960938 -0.914062 11.921875 -0.4375 C 10.890625 0.0390625 9.75 0.28125 8.5 0.28125 Z M 8.03125 -12.109375 C 7.238281 -12.109375 6.59375 -11.835938 6.09375 -11.296875 C 5.59375 -10.765625 5.273438 -9.992188 5.140625 -8.984375 L 10.75 -8.984375 L 10.75 -9.3125 C 10.726562 -10.195312 10.484375 -10.882812 10.015625 -11.375 C 9.554688 -11.863281 8.894531 -12.109375 8.03125 -12.109375 Z M 8.03125 -12.109375 "/></g></g><g transform="translate(571.208365, 173.264371)"><g/></g><g transform="translate(578.326318, 173.264371)"><g><path d="M 0.921875 -7.6875 C 0.921875 -9.1875 1.207031 -10.519531 1.78125 -11.6875 C 2.363281 -12.863281 3.195312 -13.769531 4.28125 -14.40625 C 5.363281 -15.050781 6.617188 -15.375 8.046875 -15.375 C 10.085938 -15.375 11.75 -14.75 13.03125 -13.5 C 14.320312 -12.257812 15.046875 -10.566406 15.203125 -8.421875 L 15.21875 -7.390625 C 15.21875 -5.078125 14.570312 -3.21875 13.28125 -1.8125 C 11.988281 -0.414062 10.253906 0.28125 8.078125 0.28125 C 5.898438 0.28125 4.160156 -0.414062 2.859375 -1.8125 C 1.566406 -3.207031 0.921875 -5.101562 0.921875 -7.5 Z M 4.953125 -7.390625 C 4.953125 -5.960938 5.222656 -4.867188 5.765625 -4.109375 C 6.304688 -3.347656 7.078125 -2.96875 8.078125 -2.96875 C 9.054688 -2.96875 9.816406 -3.34375 10.359375 -4.09375 C 10.910156 -4.84375 11.1875 -6.039062 11.1875 -7.6875 C 11.1875 -9.09375 10.910156 -10.179688 10.359375 -10.953125 C 9.816406 -11.722656 9.046875 -12.109375 8.046875 -12.109375 C 7.066406 -12.109375 6.304688 -11.722656 5.765625 -10.953125 C 5.222656 -10.191406 4.953125 -9.003906 4.953125 -7.390625 Z M 4.953125 -7.390625 "/></g></g><g transform="translate(594.48826, 173.264371)"><g/></g><g transform="translate(601.606214, 173.264371)"><g><path d="M 8.5 0.28125 C 6.28125 0.28125 4.472656 -0.394531 3.078125 -1.75 C 1.691406 -3.113281 1 -4.925781 1 -7.1875 L 1 -7.578125 C 1 -9.097656 1.289062 -10.453125 1.875 -11.640625 C 2.46875 -12.835938 3.300781 -13.757812 4.375 -14.40625 C 5.445312 -15.050781 6.671875 -15.375 8.046875 -15.375 C 10.117188 -15.375 11.742188 -14.722656 12.921875 -13.421875 C 14.109375 -12.117188 14.703125 -10.273438 14.703125 -7.890625 L 14.703125 -6.234375 L 5.09375 -6.234375 C 5.21875 -5.253906 5.609375 -4.460938 6.265625 -3.859375 C 6.921875 -3.265625 7.753906 -2.96875 8.765625 -2.96875 C 10.316406 -2.96875 11.53125 -3.53125 12.40625 -4.65625 L 14.390625 -2.4375 C 13.785156 -1.582031 12.960938 -0.914062 11.921875 -0.4375 C 10.890625 0.0390625 9.75 0.28125 8.5 0.28125 Z M 8.03125 -12.109375 C 7.238281 -12.109375 6.59375 -11.835938 6.09375 -11.296875 C 5.59375 -10.765625 5.273438 -9.992188 5.140625 -8.984375 L 10.75 -8.984375 L 10.75 -9.3125 C 10.726562 -10.195312 10.484375 -10.882812 10.015625 -11.375 C 9.554688 -11.863281 8.894531 -12.109375 8.03125 -12.109375 Z M 8.03125 -12.109375 "/></g></g><g transform="translate(617.05636, 173.264371)"><g><path d="M 7.296875 -10.59375 L 9.84375 -15.09375 L 14.15625 -15.09375 L 9.859375 -7.703125 L 14.328125 0 L 10 0 L 7.3125 -4.75 L 4.625 0 L 0.296875 0 L 4.765625 -7.703125 L 0.484375 -15.09375 L 4.8125 -15.09375 Z M 7.296875 -10.59375 "/></g></g><g transform="translate(631.599316, 173.264371)"><g><path d="M 8.5 0.28125 C 6.28125 0.28125 4.472656 -0.394531 3.078125 -1.75 C 1.691406 -3.113281 1 -4.925781 1 -7.1875 L 1 -7.578125 C 1 -9.097656 1.289062 -10.453125 1.875 -11.640625 C 2.46875 -12.835938 3.300781 -13.757812 4.375 -14.40625 C 5.445312 -15.050781 6.671875 -15.375 8.046875 -15.375 C 10.117188 -15.375 11.742188 -14.722656 12.921875 -13.421875 C 14.109375 -12.117188 14.703125 -10.273438 14.703125 -7.890625 L 14.703125 -6.234375 L 5.09375 -6.234375 C 5.21875 -5.253906 5.609375 -4.460938 6.265625 -3.859375 C 6.921875 -3.265625 7.753906 -2.96875 8.765625 -2.96875 C 10.316406 -2.96875 11.53125 -3.53125 12.40625 -4.65625 L 14.390625 -2.4375 C 13.785156 -1.582031 12.960938 -0.914062 11.921875 -0.4375 C 10.890625 0.0390625 9.75 0.28125 8.5 0.28125 Z M 8.03125 -12.109375 C 7.238281 -12.109375 6.59375 -11.835938 6.09375 -11.296875 C 5.59375 -10.765625 5.273438 -9.992188 5.140625 -8.984375 L 10.75 -8.984375 L 10.75 -9.3125 C 10.726562 -10.195312 10.484375 -10.882812 10.015625 -11.375 C 9.554688 -11.863281 8.894531 -12.109375 8.03125 -12.109375 Z M 8.03125 -12.109375 "/></g></g><g transform="translate(647.049462, 173.264371)"><g><path d="M 10.03125 -11.3125 C 9.476562 -11.382812 8.992188 -11.421875 8.578125 -11.421875 C 7.054688 -11.421875 6.054688 -10.90625 5.578125 -9.875 L 5.578125 0 L 1.546875 0 L 1.546875 -15.09375 L 5.359375 -15.09375 L 5.46875 -13.296875 C 6.28125 -14.679688 7.398438 -15.375 8.828125 -15.375 C 9.273438 -15.375 9.695312 -15.316406 10.09375 -15.203125 Z M 10.03125 -11.3125 "/></g></g><g transform="translate(657.47517, 173.264371)"><g><path d="M 7.828125 -2.96875 C 8.566406 -2.96875 9.171875 -3.171875 9.640625 -3.578125 C 10.109375 -3.992188 10.351562 -4.539062 10.375 -5.21875 L 14.15625 -5.21875 C 14.144531 -4.195312 13.863281 -3.257812 13.3125 -2.40625 C 12.757812 -1.550781 12.003906 -0.890625 11.046875 -0.421875 C 10.097656 0.046875 9.046875 0.28125 7.890625 0.28125 C 5.734375 0.28125 4.03125 -0.40625 2.78125 -1.78125 C 1.539062 -3.15625 0.921875 -5.050781 0.921875 -7.46875 L 0.921875 -7.734375 C 0.921875 -10.054688 1.535156 -11.910156 2.765625 -13.296875 C 4.003906 -14.679688 5.707031 -15.375 7.875 -15.375 C 9.757812 -15.375 11.269531 -14.835938 12.40625 -13.765625 C 13.550781 -12.691406 14.132812 -11.257812 14.15625 -9.46875 L 10.375 -9.46875 C 10.351562 -10.25 10.109375 -10.882812 9.640625 -11.375 C 9.171875 -11.863281 8.554688 -12.109375 7.796875 -12.109375 C 6.859375 -12.109375 6.148438 -11.765625 5.671875 -11.078125 C 5.191406 -10.398438 4.953125 -9.296875 4.953125 -7.765625 L 4.953125 -7.34375 C 4.953125 -5.789062 5.1875 -4.671875 5.65625 -3.984375 C 6.132812 -3.304688 6.859375 -2.96875 7.828125 -2.96875 Z M 7.828125 -2.96875 "/></g></g><g transform="translate(672.381003, 173.264371)"><g><path d="M 5.90625 0 L 1.875 0 L 1.875 -15.09375 L 5.90625 -15.09375 Z M 4.71875 -21.234375 L 9.109375 -21.234375 L 5.25 -16.90625 L 1.96875 -16.90625 Z M 4.71875 -21.234375 "/></g></g><g transform="translate(680.210752, 173.264371)"><g><path d="M 7.828125 -2.96875 C 8.566406 -2.96875 9.171875 -3.171875 9.640625 -3.578125 C 10.109375 -3.992188 10.351562 -4.539062 10.375 -5.21875 L 14.15625 -5.21875 C 14.144531 -4.195312 13.863281 -3.257812 13.3125 -2.40625 C 12.757812 -1.550781 12.003906 -0.890625 11.046875 -0.421875 C 10.097656 0.046875 9.046875 0.28125 7.890625 0.28125 C 5.734375 0.28125 4.03125 -0.40625 2.78125 -1.78125 C 1.539062 -3.15625 0.921875 -5.050781 0.921875 -7.46875 L 0.921875 -7.734375 C 0.921875 -10.054688 1.535156 -11.910156 2.765625 -13.296875 C 4.003906 -14.679688 5.707031 -15.375 7.875 -15.375 C 9.757812 -15.375 11.269531 -14.835938 12.40625 -13.765625 C 13.550781 -12.691406 14.132812 -11.257812 14.15625 -9.46875 L 10.375 -9.46875 C 10.351562 -10.25 10.109375 -10.882812 9.640625 -11.375 C 9.171875 -11.863281 8.554688 -12.109375 7.796875 -12.109375 C 6.859375 -12.109375 6.148438 -11.765625 5.671875 -11.078125 C 5.191406 -10.398438 4.953125 -9.296875 4.953125 -7.765625 L 4.953125 -7.34375 C 4.953125 -5.789062 5.1875 -4.671875 5.65625 -3.984375 C 6.132812 -3.304688 6.859375 -2.96875 7.828125 -2.96875 Z M 7.828125 -2.96875 "/></g></g><g transform="translate(695.116584, 173.264371)"><g><path d="M 5.8125 0 L 1.765625 0 L 1.765625 -15.09375 L 5.8125 -15.09375 Z M 1.515625 -19 C 1.515625 -19.601562 1.71875 -20.097656 2.125 -20.484375 C 2.53125 -20.878906 3.082031 -21.078125 3.78125 -21.078125 C 4.46875 -21.078125 5.015625 -20.878906 5.421875 -20.484375 C 5.835938 -20.097656 6.046875 -19.601562 6.046875 -19 C 6.046875 -18.382812 5.835938 -17.878906 5.421875 -17.484375 C 5.003906 -17.097656 4.457031 -16.90625 3.78125 -16.90625 C 3.101562 -16.90625 2.554688 -17.097656 2.140625 -17.484375 C 1.722656 -17.878906 1.515625 -18.382812 1.515625 -19 Z M 1.515625 -19 "/></g></g><g transform="translate(702.695111, 173.264371)"><g><path d="M 0.921875 -7.6875 C 0.921875 -9.1875 1.207031 -10.519531 1.78125 -11.6875 C 2.363281 -12.863281 3.195312 -13.769531 4.28125 -14.40625 C 5.363281 -15.050781 6.617188 -15.375 8.046875 -15.375 C 10.085938 -15.375 11.75 -14.75 13.03125 -13.5 C 14.320312 -12.257812 15.046875 -10.566406 15.203125 -8.421875 L 15.21875 -7.390625 C 15.21875 -5.078125 14.570312 -3.21875 13.28125 -1.8125 C 11.988281 -0.414062 10.253906 0.28125 8.078125 0.28125 C 5.898438 0.28125 4.160156 -0.414062 2.859375 -1.8125 C 1.566406 -3.207031 0.921875 -5.101562 0.921875 -7.5 Z M 4.953125 -7.390625 C 4.953125 -5.960938 5.222656 -4.867188 5.765625 -4.109375 C 6.304688 -3.347656 7.078125 -2.96875 8.078125 -2.96875 C 9.054688 -2.96875 9.816406 -3.34375 10.359375 -4.09375 C 10.910156 -4.84375 11.1875 -6.039062 11.1875 -7.6875 C 11.1875 -9.09375 10.910156 -10.179688 10.359375 -10.953125 C 9.816406 -11.722656 9.046875 -12.109375 8.046875 -12.109375 C 7.066406 -12.109375 6.304688 -11.722656 5.765625 -10.953125 C 5.222656 -10.191406 4.953125 -9.003906 4.953125 -7.390625 Z M 4.953125 -7.390625 "/></g></g><g transform="translate(718.857053, 173.264371)"><g/></g><g transform="translate(725.975007, 173.264371)"><g><path d="M 8.5 0.28125 C 6.28125 0.28125 4.472656 -0.394531 3.078125 -1.75 C 1.691406 -3.113281 1 -4.925781 1 -7.1875 L 1 -7.578125 C 1 -9.097656 1.289062 -10.453125 1.875 -11.640625 C 2.46875 -12.835938 3.300781 -13.757812 4.375 -14.40625 C 5.445312 -15.050781 6.671875 -15.375 8.046875 -15.375 C 10.117188 -15.375 11.742188 -14.722656 12.921875 -13.421875 C 14.109375 -12.117188 14.703125 -10.273438 14.703125 -7.890625 L 14.703125 -6.234375 L 5.09375 -6.234375 C 5.21875 -5.253906 5.609375 -4.460938 6.265625 -3.859375 C 6.921875 -3.265625 7.753906 -2.96875 8.765625 -2.96875 C 10.316406 -2.96875 11.53125 -3.53125 12.40625 -4.65625 L 14.390625 -2.4375 C 13.785156 -1.582031 12.960938 -0.914062 11.921875 -0.4375 C 10.890625 0.0390625 9.75 0.28125 8.5 0.28125 Z M 8.03125 -12.109375 C 7.238281 -12.109375 6.59375 -11.835938 6.09375 -11.296875 C 5.59375 -10.765625 5.273438 -9.992188 5.140625 -8.984375 L 10.75 -8.984375 L 10.75 -9.3125 C 10.726562 -10.195312 10.484375 -10.882812 10.015625 -11.375 C 9.554688 -11.863281 8.894531 -12.109375 8.03125 -12.109375 Z M 8.390625 -21.4375 L 12.78125 -21.4375 L 8.921875 -17.109375 L 5.640625 -17.109375 Z M 8.390625 -21.4375 "/></g></g><g transform="translate(741.425153, 173.264371)"><g/></g><g transform="translate(748.543106, 173.264371)"><g><path d="M 15.140625 -7.40625 C 15.140625 -5.082031 14.609375 -3.21875 13.546875 -1.8125 C 12.492188 -0.414062 11.070312 0.28125 9.28125 0.28125 C 7.75 0.28125 6.515625 -0.25 5.578125 -1.3125 L 5.578125 5.8125 L 1.546875 5.8125 L 1.546875 -15.09375 L 5.28125 -15.09375 L 5.421875 -13.625 C 6.398438 -14.789062 7.675781 -15.375 9.25 -15.375 C 11.113281 -15.375 12.5625 -14.6875 13.59375 -13.3125 C 14.625 -11.9375 15.140625 -10.039062 15.140625 -7.625 Z M 11.109375 -7.703125 C 11.109375 -9.109375 10.859375 -10.191406 10.359375 -10.953125 C 9.859375 -11.710938 9.132812 -12.09375 8.1875 -12.09375 C 6.925781 -12.09375 6.054688 -11.609375 5.578125 -10.640625 L 5.578125 -4.46875 C 6.078125 -3.46875 6.957031 -2.96875 8.21875 -2.96875 C 10.144531 -2.96875 11.109375 -4.546875 11.109375 -7.703125 Z M 11.109375 -7.703125 "/></g></g><g transform="translate(764.635264, 173.264371)"><g><path d="M 10.296875 0 C 10.109375 -0.363281 9.972656 -0.816406 9.890625 -1.359375 C 8.910156 -0.265625 7.640625 0.28125 6.078125 0.28125 C 4.597656 0.28125 3.375 -0.144531 2.40625 -1 C 1.4375 -1.851562 0.953125 -2.929688 0.953125 -4.234375 C 0.953125 -5.835938 1.539062 -7.066406 2.71875 -7.921875 C 3.90625 -8.773438 5.625 -9.207031 7.875 -9.21875 L 9.71875 -9.21875 L 9.71875 -10.09375 C 9.71875 -10.789062 9.539062 -11.347656 9.1875 -11.765625 C 8.832031 -12.179688 8.269531 -12.390625 7.5 -12.390625 C 6.8125 -12.390625 6.273438 -12.226562 5.890625 -11.90625 C 5.503906 -11.582031 5.3125 -11.132812 5.3125 -10.5625 L 1.28125 -10.5625 C 1.28125 -11.4375 1.550781 -12.242188 2.09375 -12.984375 C 2.632812 -13.734375 3.394531 -14.316406 4.375 -14.734375 C 5.363281 -15.160156 6.472656 -15.375 7.703125 -15.375 C 9.566406 -15.375 11.039062 -14.90625 12.125 -13.96875 C 13.21875 -13.039062 13.765625 -11.726562 13.765625 -10.03125 L 13.765625 -3.484375 C 13.773438 -2.054688 13.976562 -0.972656 14.375 -0.234375 L 14.375 0 Z M 6.96875 -2.8125 C 7.5625 -2.8125 8.109375 -2.941406 8.609375 -3.203125 C 9.109375 -3.460938 9.476562 -3.816406 9.71875 -4.265625 L 9.71875 -6.859375 L 8.21875 -6.859375 C 6.195312 -6.859375 5.125 -6.160156 5 -4.765625 L 4.984375 -4.53125 C 4.984375 -4.03125 5.160156 -3.617188 5.515625 -3.296875 C 5.867188 -2.972656 6.351562 -2.8125 6.96875 -2.8125 Z M 6.96875 -2.8125 "/></g></g><g transform="translate(779.9598, 173.264371)"><g><path d="M 10.03125 -11.3125 C 9.476562 -11.382812 8.992188 -11.421875 8.578125 -11.421875 C 7.054688 -11.421875 6.054688 -10.90625 5.578125 -9.875 L 5.578125 0 L 1.546875 0 L 1.546875 -15.09375 L 5.359375 -15.09375 L 5.46875 -13.296875 C 6.28125 -14.679688 7.398438 -15.375 8.828125 -15.375 C 9.273438 -15.375 9.695312 -15.316406 10.09375 -15.203125 Z M 10.03125 -11.3125 "/></g></g><g transform="translate(790.385508, 173.264371)"><g><path d="M 10.296875 0 C 10.109375 -0.363281 9.972656 -0.816406 9.890625 -1.359375 C 8.910156 -0.265625 7.640625 0.28125 6.078125 0.28125 C 4.597656 0.28125 3.375 -0.144531 2.40625 -1 C 1.4375 -1.851562 0.953125 -2.929688 0.953125 -4.234375 C 0.953125 -5.835938 1.539062 -7.066406 2.71875 -7.921875 C 3.90625 -8.773438 5.625 -9.207031 7.875 -9.21875 L 9.71875 -9.21875 L 9.71875 -10.09375 C 9.71875 -10.789062 9.539062 -11.347656 9.1875 -11.765625 C 8.832031 -12.179688 8.269531 -12.390625 7.5 -12.390625 C 6.8125 -12.390625 6.273438 -12.226562 5.890625 -11.90625 C 5.503906 -11.582031 5.3125 -11.132812 5.3125 -10.5625 L 1.28125 -10.5625 C 1.28125 -11.4375 1.550781 -12.242188 2.09375 -12.984375 C 2.632812 -13.734375 3.394531 -14.316406 4.375 -14.734375 C 5.363281 -15.160156 6.472656 -15.375 7.703125 -15.375 C 9.566406 -15.375 11.039062 -14.90625 12.125 -13.96875 C 13.21875 -13.039062 13.765625 -11.726562 13.765625 -10.03125 L 13.765625 -3.484375 C 13.773438 -2.054688 13.976562 -0.972656 14.375 -0.234375 L 14.375 0 Z M 6.96875 -2.8125 C 7.5625 -2.8125 8.109375 -2.941406 8.609375 -3.203125 C 9.109375 -3.460938 9.476562 -3.816406 9.71875 -4.265625 L 9.71875 -6.859375 L 8.21875 -6.859375 C 6.195312 -6.859375 5.125 -6.160156 5 -4.765625 L 4.984375 -4.53125 C 4.984375 -4.03125 5.160156 -3.617188 5.515625 -3.296875 C 5.867188 -2.972656 6.351562 -2.8125 6.96875 -2.8125 Z M 6.96875 -2.8125 "/></g></g></g><g fill="#252827" fill-opacity="1"><g transform="translate(500.335878, 207.564533)"><g><path d="M 0.921875 -7.6875 C 0.921875 -9.1875 1.207031 -10.519531 1.78125 -11.6875 C 2.363281 -12.863281 3.195312 -13.769531 4.28125 -14.40625 C 5.363281 -15.050781 6.617188 -15.375 8.046875 -15.375 C 10.085938 -15.375 11.75 -14.75 13.03125 -13.5 C 14.320312 -12.257812 15.046875 -10.566406 15.203125 -8.421875 L 15.21875 -7.390625 C 15.21875 -5.078125 14.570312 -3.21875 13.28125 -1.8125 C 11.988281 -0.414062 10.253906 0.28125 8.078125 0.28125 C 5.898438 0.28125 4.160156 -0.414062 2.859375 -1.8125 C 1.566406 -3.207031 0.921875 -5.101562 0.921875 -7.5 Z M 4.953125 -7.390625 C 4.953125 -5.960938 5.222656 -4.867188 5.765625 -4.109375 C 6.304688 -3.347656 7.078125 -2.96875 8.078125 -2.96875 C 9.054688 -2.96875 9.816406 -3.34375 10.359375 -4.09375 C 10.910156 -4.84375 11.1875 -6.039062 11.1875 -7.6875 C 11.1875 -9.09375 10.910156 -10.179688 10.359375 -10.953125 C 9.816406 -11.722656 9.046875 -12.109375 8.046875 -12.109375 C 7.066406 -12.109375 6.304688 -11.722656 5.765625 -10.953125 C 5.222656 -10.191406 4.953125 -9.003906 4.953125 -7.390625 Z M 4.953125 -7.390625 "/></g></g><g transform="translate(516.497819, 207.564533)"><g/></g><g transform="translate(523.615773, 207.564533)"><g><path d="M 7.828125 -2.96875 C 8.566406 -2.96875 9.171875 -3.171875 9.640625 -3.578125 C 10.109375 -3.992188 10.351562 -4.539062 10.375 -5.21875 L 14.15625 -5.21875 C 14.144531 -4.195312 13.863281 -3.257812 13.3125 -2.40625 C 12.757812 -1.550781 12.003906 -0.890625 11.046875 -0.421875 C 10.097656 0.046875 9.046875 0.28125 7.890625 0.28125 C 5.734375 0.28125 4.03125 -0.40625 2.78125 -1.78125 C 1.539062 -3.15625 0.921875 -5.050781 0.921875 -7.46875 L 0.921875 -7.734375 C 0.921875 -10.054688 1.535156 -11.910156 2.765625 -13.296875 C 4.003906 -14.679688 5.707031 -15.375 7.875 -15.375 C 9.757812 -15.375 11.269531 -14.835938 12.40625 -13.765625 C 13.550781 -12.691406 14.132812 -11.257812 14.15625 -9.46875 L 10.375 -9.46875 C 10.351562 -10.25 10.109375 -10.882812 9.640625 -11.375 C 9.171875 -11.863281 8.554688 -12.109375 7.796875 -12.109375 C 6.859375 -12.109375 6.148438 -11.765625 5.671875 -11.078125 C 5.191406 -10.398438 4.953125 -9.296875 4.953125 -7.765625 L 4.953125 -7.34375 C 4.953125 -5.789062 5.1875 -4.671875 5.65625 -3.984375 C 6.132812 -3.304688 6.859375 -2.96875 7.828125 -2.96875 Z M 7.828125 -2.96875 "/></g></g><g transform="translate(538.521605, 207.564533)"><g><path d="M 0.921875 -7.6875 C 0.921875 -9.1875 1.207031 -10.519531 1.78125 -11.6875 C 2.363281 -12.863281 3.195312 -13.769531 4.28125 -14.40625 C 5.363281 -15.050781 6.617188 -15.375 8.046875 -15.375 C 10.085938 -15.375 11.75 -14.75 13.03125 -13.5 C 14.320312 -12.257812 15.046875 -10.566406 15.203125 -8.421875 L 15.21875 -7.390625 C 15.21875 -5.078125 14.570312 -3.21875 13.28125 -1.8125 C 11.988281 -0.414062 10.253906 0.28125 8.078125 0.28125 C 5.898438 0.28125 4.160156 -0.414062 2.859375 -1.8125 C 1.566406 -3.207031 0.921875 -5.101562 0.921875 -7.5 Z M 4.953125 -7.390625 C 4.953125 -5.960938 5.222656 -4.867188 5.765625 -4.109375 C 6.304688 -3.347656 7.078125 -2.96875 8.078125 -2.96875 C 9.054688 -2.96875 9.816406 -3.34375 10.359375 -4.09375 C 10.910156 -4.84375 11.1875 -6.039062 11.1875 -7.6875 C 11.1875 -9.09375 10.910156 -10.179688 10.359375 -10.953125 C 9.816406 -11.722656 9.046875 -12.109375 8.046875 -12.109375 C 7.066406 -12.109375 6.304688 -11.722656 5.765625 -10.953125 C 5.222656 -10.191406 4.953125 -9.003906 4.953125 -7.390625 Z M 4.953125 -7.390625 "/></g></g><g transform="translate(554.683547, 207.564533)"><g><path d="M 10.03125 -11.3125 C 9.476562 -11.382812 8.992188 -11.421875 8.578125 -11.421875 C 7.054688 -11.421875 6.054688 -10.90625 5.578125 -9.875 L 5.578125 0 L 1.546875 0 L 1.546875 -15.09375 L 5.359375 -15.09375 L 5.46875 -13.296875 C 6.28125 -14.679688 7.398438 -15.375 8.828125 -15.375 C 9.273438 -15.375 9.695312 -15.316406 10.09375 -15.203125 Z M 10.03125 -11.3125 "/></g></g><g transform="translate(565.109256, 207.564533)"><g><path d="M 15.140625 -7.40625 C 15.140625 -5.082031 14.609375 -3.21875 13.546875 -1.8125 C 12.492188 -0.414062 11.070312 0.28125 9.28125 0.28125 C 7.75 0.28125 6.515625 -0.25 5.578125 -1.3125 L 5.578125 5.8125 L 1.546875 5.8125 L 1.546875 -15.09375 L 5.28125 -15.09375 L 5.421875 -13.625 C 6.398438 -14.789062 7.675781 -15.375 9.25 -15.375 C 11.113281 -15.375 12.5625 -14.6875 13.59375 -13.3125 C 14.625 -11.9375 15.140625 -10.039062 15.140625 -7.625 Z M 11.109375 -7.703125 C 11.109375 -9.109375 10.859375 -10.191406 10.359375 -10.953125 C 9.859375 -11.710938 9.132812 -12.09375 8.1875 -12.09375 C 6.925781 -12.09375 6.054688 -11.609375 5.578125 -10.640625 L 5.578125 -4.46875 C 6.078125 -3.46875 6.957031 -2.96875 8.21875 -2.96875 C 10.144531 -2.96875 11.109375 -4.546875 11.109375 -7.703125 Z M 11.109375 -7.703125 "/></g></g><g transform="translate(581.201413, 207.564533)"><g><path d="M 0.921875 -7.6875 C 0.921875 -9.1875 1.207031 -10.519531 1.78125 -11.6875 C 2.363281 -12.863281 3.195312 -13.769531 4.28125 -14.40625 C 5.363281 -15.050781 6.617188 -15.375 8.046875 -15.375 C 10.085938 -15.375 11.75 -14.75 13.03125 -13.5 C 14.320312 -12.257812 15.046875 -10.566406 15.203125 -8.421875 L 15.21875 -7.390625 C 15.21875 -5.078125 14.570312 -3.21875 13.28125 -1.8125 C 11.988281 -0.414062 10.253906 0.28125 8.078125 0.28125 C 5.898438 0.28125 4.160156 -0.414062 2.859375 -1.8125 C 1.566406 -3.207031 0.921875 -5.101562 0.921875 -7.5 Z M 4.953125 -7.390625 C 4.953125 -5.960938 5.222656 -4.867188 5.765625 -4.109375 C 6.304688 -3.347656 7.078125 -2.96875 8.078125 -2.96875 C 9.054688 -2.96875 9.816406 -3.34375 10.359375 -4.09375 C 10.910156 -4.84375 11.1875 -6.039062 11.1875 -7.6875 C 11.1875 -9.09375 10.910156 -10.179688 10.359375 -10.953125 C 9.816406 -11.722656 9.046875 -12.109375 8.046875 -12.109375 C 7.066406 -12.109375 6.304688 -11.722656 5.765625 -10.953125 C 5.222656 -10.191406 4.953125 -9.003906 4.953125 -7.390625 Z M 4.953125 -7.390625 "/></g></g><g transform="translate(597.363355, 207.564533)"><g><path d="M 1.765625 -1.984375 C 1.765625 -2.617188 1.976562 -3.132812 2.40625 -3.53125 C 2.84375 -3.9375 3.382812 -4.140625 4.03125 -4.140625 C 4.695312 -4.140625 5.242188 -3.9375 5.671875 -3.53125 C 6.109375 -3.132812 6.328125 -2.617188 6.328125 -1.984375 C 6.328125 -1.347656 6.109375 -0.832031 5.671875 -0.4375 C 5.242188 -0.0390625 4.695312 0.15625 4.03125 0.15625 C 3.375 0.15625 2.832031 -0.0390625 2.40625 -0.4375 C 1.976562 -0.832031 1.765625 -1.347656 1.765625 -1.984375 Z M 1.765625 -1.984375 "/></g></g></g><g fill="#252827" fill-opacity="1"><g transform="translate(500.949054, 66.165662)"><g><path d="M 2.265625 0 L 0.625 0 C 0.414062 0 0.34375 -0.117188 0.40625 -0.359375 L 3.125 -10.671875 C 3.207031 -10.910156 3.378906 -11.03125 3.640625 -11.03125 L 5.921875 -11.03125 C 6.203125 -11.03125 6.375 -10.910156 6.4375 -10.671875 L 9.140625 -0.359375 C 9.210938 -0.117188 9.144531 0 8.9375 0 L 7.296875 0 C 7.171875 0 7.082031 -0.0234375 7.03125 -0.078125 C 6.988281 -0.128906 6.957031 -0.222656 6.9375 -0.359375 L 6.453125 -2.25 L 3.109375 -2.25 L 2.625 -0.359375 C 2.601562 -0.222656 2.566406 -0.128906 2.515625 -0.078125 C 2.460938 -0.0234375 2.378906 0 2.265625 0 Z M 4.75 -8.953125 L 3.515625 -4 L 6.0625 -4 L 4.828125 -8.953125 Z M 4.75 -8.953125 "/></g></g></g><g fill="#252827" fill-opacity="1"><g transform="translate(511.359172, 66.165662)"><g><path d="M 5.640625 0 L 3.78125 0 C 2.875 0 2.171875 -0.238281 1.671875 -0.71875 C 1.179688 -1.195312 0.9375 -1.890625 0.9375 -2.796875 L 0.9375 -8.234375 C 0.9375 -9.140625 1.179688 -9.832031 1.671875 -10.3125 C 2.171875 -10.789062 2.875 -11.03125 3.78125 -11.03125 L 5.640625 -11.03125 C 6.535156 -11.03125 7.226562 -10.785156 7.71875 -10.296875 C 8.21875 -9.816406 8.46875 -9.128906 8.46875 -8.234375 L 8.46875 -7.421875 C 8.46875 -7.171875 8.34375 -7.046875 8.09375 -7.046875 L 6.65625 -7.046875 C 6.414062 -7.046875 6.296875 -7.171875 6.296875 -7.421875 L 6.296875 -8.125 C 6.296875 -8.5 6.21875 -8.757812 6.0625 -8.90625 C 5.90625 -9.0625 5.644531 -9.140625 5.28125 -9.140625 L 4.125 -9.140625 C 3.757812 -9.140625 3.5 -9.0625 3.34375 -8.90625 C 3.195312 -8.757812 3.125 -8.5 3.125 -8.125 L 3.125 -2.90625 C 3.125 -2.53125 3.195312 -2.265625 3.34375 -2.109375 C 3.5 -1.960938 3.757812 -1.890625 4.125 -1.890625 L 5.28125 -1.890625 C 5.644531 -1.890625 5.90625 -1.960938 6.0625 -2.109375 C 6.21875 -2.265625 6.296875 -2.53125 6.296875 -2.90625 L 6.296875 -3.609375 C 6.296875 -3.859375 6.414062 -3.984375 6.65625 -3.984375 L 8.09375 -3.984375 C 8.34375 -3.984375 8.46875 -3.859375 8.46875 -3.609375 L 8.46875 -2.796875 C 8.46875 -1.898438 8.21875 -1.207031 7.71875 -0.71875 C 7.226562 -0.238281 6.535156 0 5.640625 0 Z M 5.640625 0 "/></g></g></g><g fill="#252827" fill-opacity="1"><g transform="translate(521.443438, 66.165662)"><g><path d="M 2.9375 0 L 1.46875 0 C 1.226562 0 1.109375 -0.117188 1.109375 -0.359375 L 1.109375 -10.671875 C 1.109375 -10.910156 1.226562 -11.03125 1.46875 -11.03125 L 5.5625 -11.03125 C 6.445312 -11.03125 7.140625 -10.785156 7.640625 -10.296875 C 8.148438 -9.804688 8.40625 -9.113281 8.40625 -8.21875 L 8.40625 -6.875 C 8.40625 -5.582031 7.894531 -4.726562 6.875 -4.3125 L 6.875 -4.234375 L 8.71875 -0.40625 C 8.820312 -0.132812 8.722656 0 8.421875 0 L 7.03125 0 C 6.820312 0 6.671875 -0.0195312 6.578125 -0.0625 C 6.492188 -0.113281 6.421875 -0.210938 6.359375 -0.359375 L 4.65625 -4.0625 L 3.5 -4.0625 C 3.363281 -4.0625 3.296875 -4 3.296875 -3.875 L 3.296875 -0.359375 C 3.296875 -0.117188 3.175781 0 2.9375 0 Z M 3.484375 -5.8125 L 5.171875 -5.8125 C 5.535156 -5.8125 5.800781 -5.890625 5.96875 -6.046875 C 6.144531 -6.203125 6.234375 -6.453125 6.234375 -6.796875 L 6.234375 -8.125 C 6.234375 -8.476562 6.144531 -8.734375 5.96875 -8.890625 C 5.800781 -9.054688 5.535156 -9.140625 5.171875 -9.140625 L 3.484375 -9.140625 C 3.359375 -9.140625 3.296875 -9.078125 3.296875 -8.953125 L 3.296875 -6 C 3.296875 -5.875 3.359375 -5.8125 3.484375 -5.8125 Z M 3.484375 -5.8125 "/></g></g></g><g fill="#252827" fill-opacity="1"><g transform="translate(531.682056, 66.165662)"><g><path d="M 7.078125 0 L 1.46875 0 C 1.226562 0 1.109375 -0.117188 1.109375 -0.359375 L 1.109375 -10.671875 C 1.109375 -10.910156 1.226562 -11.03125 1.46875 -11.03125 L 7.078125 -11.03125 C 7.304688 -11.03125 7.421875 -10.910156 7.421875 -10.671875 L 7.421875 -9.5 C 7.421875 -9.257812 7.304688 -9.140625 7.078125 -9.140625 L 3.5 -9.140625 C 3.363281 -9.140625 3.296875 -9.078125 3.296875 -8.953125 L 3.296875 -6.71875 C 3.296875 -6.59375 3.363281 -6.53125 3.5 -6.53125 L 6.4375 -6.53125 C 6.675781 -6.53125 6.796875 -6.410156 6.796875 -6.171875 L 6.796875 -5.015625 C 6.796875 -4.773438 6.675781 -4.65625 6.4375 -4.65625 L 3.5 -4.65625 C 3.363281 -4.65625 3.296875 -4.585938 3.296875 -4.453125 L 3.296875 -2.078125 C 3.296875 -1.953125 3.363281 -1.890625 3.5 -1.890625 L 7.078125 -1.890625 C 7.304688 -1.890625 7.421875 -1.769531 7.421875 -1.53125 L 7.421875 -0.359375 C 7.421875 -0.117188 7.304688 0 7.078125 0 Z M 7.078125 0 "/></g></g></g><g fill="#252827" fill-opacity="1"><g transform="translate(540.754467, 66.165662)"><g><path d="M 3.484375 -1.890625 L 5.359375 -1.890625 C 5.722656 -1.890625 5.976562 -1.960938 6.125 -2.109375 C 6.28125 -2.265625 6.359375 -2.53125 6.359375 -2.90625 L 6.359375 -8.125 C 6.359375 -8.5 6.28125 -8.757812 6.125 -8.90625 C 5.976562 -9.0625 5.722656 -9.140625 5.359375 -9.140625 L 3.484375 -9.140625 C 3.359375 -9.140625 3.296875 -9.078125 3.296875 -8.953125 L 3.296875 -2.078125 C 3.296875 -1.953125 3.359375 -1.890625 3.484375 -1.890625 Z M 1.109375 -0.359375 L 1.109375 -10.671875 C 1.109375 -10.910156 1.226562 -11.03125 1.46875 -11.03125 L 5.71875 -11.03125 C 6.601562 -11.03125 7.296875 -10.785156 7.796875 -10.296875 C 8.296875 -9.816406 8.546875 -9.128906 8.546875 -8.234375 L 8.546875 -2.796875 C 8.546875 -1.898438 8.296875 -1.207031 7.796875 -0.71875 C 7.296875 -0.238281 6.601562 0 5.71875 0 L 1.46875 0 C 1.226562 0 1.109375 -0.117188 1.109375 -0.359375 Z M 1.109375 -0.359375 "/></g></g></g><g fill="#252827" fill-opacity="1"><g transform="translate(551.095985, 66.165662)"><g><path d="M 3.375 -10.671875 L 3.375 -0.359375 C 3.375 -0.117188 3.253906 0 3.015625 0 L 1.5625 0 C 1.320312 0 1.203125 -0.117188 1.203125 -0.359375 L 1.203125 -10.671875 C 1.203125 -10.910156 1.320312 -11.03125 1.5625 -11.03125 L 3.015625 -11.03125 C 3.253906 -11.03125 3.375 -10.910156 3.375 -10.671875 Z M 3.375 -10.671875 "/></g></g></g><g fill="#252827" fill-opacity="1"><g transform="translate(556.532568, 66.165662)"><g><path d="M 4.53125 0 L 3.09375 0 C 2.832031 0 2.703125 -0.117188 2.703125 -0.359375 L 2.703125 -8.953125 C 2.703125 -9.078125 2.640625 -9.140625 2.515625 -9.140625 L 0.5625 -9.140625 C 0.320312 -9.140625 0.203125 -9.257812 0.203125 -9.5 L 0.203125 -10.671875 C 0.203125 -10.910156 0.320312 -11.03125 0.5625 -11.03125 L 7.046875 -11.03125 C 7.285156 -11.03125 7.40625 -10.910156 7.40625 -10.671875 L 7.40625 -9.5 C 7.40625 -9.257812 7.285156 -9.140625 7.046875 -9.140625 L 5.09375 -9.140625 C 4.957031 -9.140625 4.890625 -9.078125 4.890625 -8.953125 L 4.890625 -0.359375 C 4.890625 -0.117188 4.769531 0 4.53125 0 Z M 4.53125 0 "/></g></g></g><g fill="#252827" fill-opacity="1"><g transform="translate(564.987569, 66.165662)"><g><path d="M 2.265625 0 L 0.625 0 C 0.414062 0 0.34375 -0.117188 0.40625 -0.359375 L 3.125 -10.671875 C 3.207031 -10.910156 3.378906 -11.03125 3.640625 -11.03125 L 5.921875 -11.03125 C 6.203125 -11.03125 6.375 -10.910156 6.4375 -10.671875 L 9.140625 -0.359375 C 9.210938 -0.117188 9.144531 0 8.9375 0 L 7.296875 0 C 7.171875 0 7.082031 -0.0234375 7.03125 -0.078125 C 6.988281 -0.128906 6.957031 -0.222656 6.9375 -0.359375 L 6.453125 -2.25 L 3.109375 -2.25 L 2.625 -0.359375 C 2.601562 -0.222656 2.566406 -0.128906 2.515625 -0.078125 C 2.460938 -0.0234375 2.378906 0 2.265625 0 Z M 4.75 -8.953125 L 3.515625 -4 L 6.0625 -4 L 4.828125 -8.953125 Z M 4.75 -8.953125 "/></g></g></g><g fill="#252827" fill-opacity="1"><g transform="translate(575.397685, 66.165662)"><g><path d="M 8.4375 -11.03125 L 10.984375 -11.03125 C 11.222656 -11.03125 11.34375 -10.910156 11.34375 -10.671875 L 11.34375 -0.359375 C 11.34375 -0.117188 11.222656 0 10.984375 0 L 9.578125 0 C 9.335938 0 9.21875 -0.117188 9.21875 -0.359375 L 9.21875 -8.5 L 9.140625 -8.5 L 7.390625 -2.75 C 7.328125 -2.519531 7.1875 -2.40625 6.96875 -2.40625 L 5.53125 -2.40625 C 5.3125 -2.40625 5.164062 -2.519531 5.09375 -2.75 L 3.3125 -8.515625 L 3.25 -8.515625 L 3.25 -0.359375 C 3.25 -0.222656 3.222656 -0.128906 3.171875 -0.078125 C 3.128906 -0.0234375 3.03125 0 2.875 0 L 1.46875 0 C 1.226562 0 1.109375 -0.117188 1.109375 -0.359375 L 1.109375 -10.671875 C 1.109375 -10.910156 1.226562 -11.03125 1.46875 -11.03125 L 4.03125 -11.03125 C 4.1875 -11.03125 4.296875 -10.953125 4.359375 -10.796875 L 6.171875 -4.734375 L 6.28125 -4.734375 L 8.109375 -10.796875 C 8.148438 -10.953125 8.257812 -11.03125 8.4375 -11.03125 Z M 8.4375 -11.03125 "/></g></g></g><g fill="#252827" fill-opacity="1"><g transform="translate(588.70617, 66.165662)"><g><path d="M 4.125 -1.890625 L 5.328125 -1.890625 C 5.703125 -1.890625 5.960938 -1.960938 6.109375 -2.109375 C 6.265625 -2.265625 6.34375 -2.53125 6.34375 -2.90625 L 6.34375 -8.125 C 6.34375 -8.5 6.265625 -8.757812 6.109375 -8.90625 C 5.960938 -9.0625 5.703125 -9.140625 5.328125 -9.140625 L 4.125 -9.140625 C 3.75 -9.140625 3.488281 -9.0625 3.34375 -8.90625 C 3.195312 -8.757812 3.125 -8.5 3.125 -8.125 L 3.125 -2.90625 C 3.125 -2.53125 3.195312 -2.265625 3.34375 -2.109375 C 3.488281 -1.960938 3.75 -1.890625 4.125 -1.890625 Z M 5.703125 0 L 3.78125 0 C 2.875 0 2.171875 -0.238281 1.671875 -0.71875 C 1.179688 -1.195312 0.9375 -1.890625 0.9375 -2.796875 L 0.9375 -8.234375 C 0.9375 -9.140625 1.179688 -9.832031 1.671875 -10.3125 C 2.171875 -10.789062 2.875 -11.03125 3.78125 -11.03125 L 5.703125 -11.03125 C 6.597656 -11.03125 7.289062 -10.789062 7.78125 -10.3125 C 8.28125 -9.832031 8.53125 -9.140625 8.53125 -8.234375 L 8.53125 -2.796875 C 8.53125 -1.890625 8.28125 -1.195312 7.78125 -0.71875 C 7.289062 -0.238281 6.597656 0 5.703125 0 Z M 5.703125 0 "/></g></g></g><g fill="#252827" fill-opacity="1"><g transform="translate(599.03054, 66.165662)"><g><path d="M 0.84375 -2.8125 L 0.84375 -3.15625 C 0.84375 -3.394531 0.960938 -3.515625 1.203125 -3.515625 L 2.65625 -3.515625 C 2.894531 -3.515625 3.015625 -3.394531 3.015625 -3.15625 L 3.015625 -3.015625 C 3.015625 -2.585938 3.097656 -2.289062 3.265625 -2.125 C 3.441406 -1.96875 3.757812 -1.890625 4.21875 -1.890625 L 5.03125 -1.890625 C 5.476562 -1.890625 5.789062 -1.972656 5.96875 -2.140625 C 6.144531 -2.316406 6.234375 -2.640625 6.234375 -3.109375 L 6.234375 -3.3125 C 6.234375 -3.644531 6.097656 -3.898438 5.828125 -4.078125 C 5.554688 -4.253906 5.21875 -4.359375 4.8125 -4.390625 C 4.414062 -4.421875 3.984375 -4.484375 3.515625 -4.578125 C 3.054688 -4.679688 2.625 -4.8125 2.21875 -4.96875 C 1.820312 -5.125 1.488281 -5.425781 1.21875 -5.875 C 0.957031 -6.320312 0.828125 -6.90625 0.828125 -7.625 L 0.828125 -8.21875 C 0.828125 -9.113281 1.078125 -9.804688 1.578125 -10.296875 C 2.078125 -10.785156 2.773438 -11.03125 3.671875 -11.03125 L 5.390625 -11.03125 C 6.296875 -11.03125 7 -10.785156 7.5 -10.296875 C 8 -9.804688 8.25 -9.113281 8.25 -8.21875 L 8.25 -7.890625 C 8.25 -7.648438 8.128906 -7.53125 7.890625 -7.53125 L 6.4375 -7.53125 C 6.195312 -7.53125 6.078125 -7.648438 6.078125 -7.890625 L 6.078125 -8 C 6.078125 -8.4375 5.988281 -8.734375 5.8125 -8.890625 C 5.644531 -9.054688 5.332031 -9.140625 4.875 -9.140625 L 4.203125 -9.140625 C 3.734375 -9.140625 3.414062 -9.050781 3.25 -8.875 C 3.082031 -8.695312 3 -8.351562 3 -7.84375 L 3 -7.515625 C 3 -6.972656 3.46875 -6.664062 4.40625 -6.59375 C 5.382812 -6.507812 6.25 -6.3125 7 -6 C 7.394531 -5.832031 7.726562 -5.523438 8 -5.078125 C 8.269531 -4.640625 8.40625 -4.078125 8.40625 -3.390625 L 8.40625 -2.8125 C 8.40625 -1.914062 8.148438 -1.222656 7.640625 -0.734375 C 7.140625 -0.242188 6.445312 0 5.5625 0 L 3.6875 0 C 2.789062 0 2.09375 -0.242188 1.59375 -0.734375 C 1.09375 -1.222656 0.84375 -1.914062 0.84375 -2.8125 Z M 0.84375 -2.8125 "/></g></g></g><g fill="#252827" fill-opacity="1"><g transform="translate(609.13196, 66.165662)"><g><path d="M 2.84375 -8.421875 L 2.84375 -6.3125 C 2.84375 -6.070312 2.734375 -5.953125 2.515625 -5.953125 L 1 -5.953125 C 0.769531 -5.953125 0.65625 -6.082031 0.65625 -6.34375 L 0.65625 -8.40625 C 0.65625 -8.632812 0.769531 -8.75 1 -8.75 L 2.515625 -8.75 C 2.734375 -8.75 2.84375 -8.640625 2.84375 -8.421875 Z M 2.84375 -2.46875 L 2.84375 -0.359375 C 2.84375 -0.117188 2.734375 0 2.515625 0 L 1 0 C 0.769531 0 0.65625 -0.125 0.65625 -0.375 L 0.65625 -2.453125 C 0.65625 -2.679688 0.769531 -2.796875 1 -2.796875 L 2.515625 -2.796875 C 2.734375 -2.796875 2.84375 -2.6875 2.84375 -2.46875 Z M 2.84375 -2.46875 "/></g></g></g><g clip-path="url(#9da279590f)"><path fill="#252827" d="M 500.949219 91.144531 L 549.539062 91.144531 L 549.539062 99.007812 L 500.949219 99.007812 Z M 500.949219 91.144531 " fill-opacity="1" fill-rule="nonzero"/></g></svg>